<?xml version="1.0" encoding="UTF-8" standalone="no"?>
<!DOCTYPE svg PUBLIC "-//W3C//DTD SVG 1.1//EN"
 "http://www.w3.org/Graphics/SVG/1.1/DTD/svg11.dtd">
<!-- Generated by graphviz version 12.1.0 (20240811.2233)
 -->
<!-- Title: DemoBehaviours Pages: 1 -->
<svg width="874pt" height="294pt"
 viewBox="0.00 0.00 873.52 294.06" xmlns="http://www.w3.org/2000/svg" xmlns:xlink="http://www.w3.org/1999/xlink">
<g id="graph0" class="graph" transform="scale(1 1) rotate(0) translate(4 290.06)">
<title>DemoBehaviours</title>
<polygon fill="white" stroke="none" points="-4,4 -4,-290.06 869.52,-290.06 869.52,4 -4,4"/>
<!-- NetworkInterfaceUnderLoad -->
<g id="node1" class="node">
<title>NetworkInterfaceUnderLoad</title>
<polygon fill="none" stroke="black" points="194.5,-185.06 0,-185.06 0,-148.56 194.5,-148.56 194.5,-185.06"/>
<text text-anchor="middle" x="97.25" y="-167.76" font-family="Times,serif" font-size="14.00">my:NetworkInterfaceUnderLoad</text>
<text text-anchor="middle" x="97.25" y="-153.51" font-family="Times,serif" font-size="14.00">a score:AssetBehaviour</text>
</g>
<!-- invis1 -->
<!-- NetworkInterfaceUnderLoad&#45;&gt;invis1 -->
<g id="edge1" class="edge">
<title>NetworkInterfaceUnderLoad&#45;&gt;invis1</title>
<path fill="none" stroke="black" d="M130.87,-185.55C153.26,-197.79 183.98,-213.38 212.5,-223.81 290.25,-252.25 393.51,-267.81 393.51,-267.81"/>
</g>
<!-- invis2 -->
<!-- NetworkInterfaceUnderLoad&#45;&gt;invis2 -->
<g id="edge2" class="edge">
<title>NetworkInterfaceUnderLoad&#45;&gt;invis2</title>
<path fill="none" stroke="black" d="M139.37,-148.1C175.46,-132.53 229.77,-111.15 279.25,-99.81 328.98,-88.41 393.51,-88.81 393.51,-88.81"/>
</g>
<!-- CoreVPNReachability -->
<g id="node2" class="node">
<title>CoreVPNReachability</title>
<polygon fill="none" stroke="black" points="865.52,-286.06 641.77,-286.06 641.77,-249.56 865.52,-249.56 865.52,-286.06"/>
<text text-anchor="middle" x="753.64" y="-268.76" font-family="Times,serif" font-size="14.00">my:CoreVPNReachability</text>
<text text-anchor="middle" x="753.64" y="-254.51" font-family="Times,serif" font-size="14.00">a score:AssetTrustworthinessAttribute</text>
</g>
<!-- SSHBastionReachability -->
<g id="node3" class="node">
<title>SSHBastionReachability</title>
<polygon fill="none" stroke="black" points="865.52,-107.06 641.77,-107.06 641.77,-70.56 865.52,-70.56 865.52,-107.06"/>
<text text-anchor="middle" x="753.64" y="-89.76" font-family="Times,serif" font-size="14.00">my:SSHBastionReachability</text>
<text text-anchor="middle" x="753.64" y="-75.51" font-family="Times,serif" font-size="14.00">a score:AssetTrustworthinessAttribute</text>
</g>
<!-- invis1&#45;&gt;CoreVPNReachability -->
<g id="edge3" class="edge">
<title>invis1&#45;&gt;CoreVPNReachability</title>
<path fill="none" stroke="black" d="M395.51,-267.81C395.51,-267.81 527.01,-267.81 630.42,-267.81"/>
<polygon fill="black" stroke="black" points="640.38,-267.81 630.38,-272.31 636.6,-267.81 630.38,-267.81 630.38,-267.81 630.38,-267.81 636.6,-267.81 630.38,-263.31 640.38,-267.81"/>
<text text-anchor="middle" x="575.77" y="-268.76" font-family="Times,serif" font-size="14.00">score:undermines</text>
</g>
<!-- high_CPU_load -->
<g id="node6" class="node">
<title>high_CPU_load</title>
<ellipse fill="none" stroke="black" cx="394.51" cy="-134.81" rx="115.26" ry="25.81"/>
<text text-anchor="middle" x="394.51" y="-135.76" font-family="Times,serif" font-size="14.00">my:high_CPU_load</text>
<text text-anchor="middle" x="394.51" y="-121.51" font-family="Times,serif" font-size="14.00">a score:BehaviourAttribute</text>
</g>
<!-- invis1&#45;&gt;high_CPU_load -->
<g id="edge5" class="edge">
<title>invis1&#45;&gt;high_CPU_load</title>
<path fill="none" stroke="black" d="M394.51,-267.81C394.51,-267.81 277.06,-281.39 238.77,-219.93 219.06,-188.29 252.77,-167.54 293.81,-154.46"/>
<polygon fill="black" stroke="black" points="303.2,-151.65 294.91,-158.83 299.58,-152.73 293.62,-154.52 293.62,-154.52 293.62,-154.52 299.58,-152.73 292.33,-150.21 303.2,-151.65"/>
<text text-anchor="middle" x="236.88" y="-206.63" font-family="Times,serif" font-size="14.00">score:via</text>
</g>
<!-- disk_poor_IO -->
<g id="node7" class="node">
<title>disk_poor_IO</title>
<ellipse fill="none" stroke="black" cx="394.51" cy="-204.81" rx="115.26" ry="25.81"/>
<text text-anchor="middle" x="394.51" y="-205.76" font-family="Times,serif" font-size="14.00">my:disk_poor_IO</text>
<text text-anchor="middle" x="394.51" y="-191.51" font-family="Times,serif" font-size="14.00">a score:BehaviourAttribute</text>
</g>
<!-- invis1&#45;&gt;disk_poor_IO -->
<g id="edge6" class="edge">
<title>invis1&#45;&gt;disk_poor_IO</title>
<path fill="none" stroke="black" d="M394.51,-267.81C394.51,-267.81 394.51,-255.57 394.51,-241.88"/>
<polygon fill="black" stroke="black" points="394.51,-232.02 399.01,-242.02 394.51,-235.8 394.51,-242.02 394.51,-242.02 394.51,-242.02 394.51,-235.8 390.01,-242.02 394.51,-232.02"/>
<text text-anchor="middle" x="384.38" y="-242.14" font-family="Times,serif" font-size="14.00">score:via</text>
</g>
<!-- invis2&#45;&gt;SSHBastionReachability -->
<g id="edge4" class="edge">
<title>invis2&#45;&gt;SSHBastionReachability</title>
<path fill="none" stroke="black" d="M395.51,-88.81C395.51,-88.81 527.01,-88.81 630.42,-88.81"/>
<polygon fill="black" stroke="black" points="640.38,-88.81 630.38,-93.31 636.6,-88.81 630.38,-88.81 630.38,-88.81 630.38,-88.81 636.6,-88.81 630.38,-84.31 640.38,-88.81"/>
<text text-anchor="middle" x="575.77" y="-89.76" font-family="Times,serif" font-size="14.00">score:undermines</text>
</g>
<!-- if_flap -->
<g id="node8" class="node">
<title>if_flap</title>
<ellipse fill="none" stroke="black" cx="394.51" cy="-25.81" rx="115.26" ry="25.81"/>
<text text-anchor="middle" x="394.51" y="-26.76" font-family="Times,serif" font-size="14.00">my:interface_flapping</text>
<text text-anchor="middle" x="394.51" y="-12.51" font-family="Times,serif" font-size="14.00">a score:BehaviourAttribute</text>
</g>
<!-- invis2&#45;&gt;if_flap -->
<g id="edge7" class="edge">
<title>invis2&#45;&gt;if_flap</title>
<path fill="none" stroke="black" d="M394.51,-88.81C394.51,-88.81 394.51,-76.57 394.51,-62.88"/>
<polygon fill="black" stroke="black" points="394.51,-53.02 399.01,-63.02 394.51,-56.8 394.51,-63.02 394.51,-63.02 394.51,-63.02 394.51,-56.8 390.01,-63.02 394.51,-53.02"/>
<text text-anchor="middle" x="384.38" y="-63.14" font-family="Times,serif" font-size="14.00">score:via</text>
</g>
</g>
</svg>
