<?xml version="1.0" encoding="UTF-8" standalone="no"?>
<!DOCTYPE svg PUBLIC "-//W3C//DTD SVG 1.1//EN"
 "http://www.w3.org/Graphics/SVG/1.1/DTD/svg11.dtd">
<!-- Generated by graphviz version 12.1.0 (20240811.2233)
 -->
<!-- Title: DemoBehaviours Pages: 1 -->
<svg width="855pt" height="224pt"
 viewBox="0.00 0.00 855.02 224.06" xmlns="http://www.w3.org/2000/svg" xmlns:xlink="http://www.w3.org/1999/xlink">
<g id="graph0" class="graph" transform="scale(1 1) rotate(0) translate(4 220.06)">
<title>DemoBehaviours</title>
<polygon fill="white" stroke="none" points="-4,4 -4,-220.06 851.02,-220.06 851.02,4 -4,4"/>
<!-- NetIfLoad -->
<g id="node1" class="node">
<title>NetIfLoad</title>
<polygon fill="none" stroke="black" points="204.25,-107.06 9.75,-107.06 9.75,-70.56 204.25,-70.56 204.25,-107.06"/>
<text text-anchor="middle" x="107" y="-89.76" font-family="Times,serif" font-size="14.00">my:NetworkInterfaceUnderLoad</text>
<text text-anchor="middle" x="107" y="-75.51" font-family="Times,serif" font-size="14.00">a score:AssetBehaviour</text>
</g>
<!-- invis1 -->
<!-- NetIfLoad&#45;&gt;invis1 -->
<g id="edge1" class="edge">
<title>NetIfLoad&#45;&gt;invis1</title>
<path fill="none" stroke="black" d="M204.72,-88.81C309,-88.81 460.26,-88.81 460.26,-88.81"/>
<text text-anchor="middle" x="280" y="-89.76" font-family="Times,serif" font-size="14.00">score:undermines</text>
</g>
<!-- SSHAccess -->
<g id="node2" class="node">
<title>SSHAccess</title>
<polygon fill="none" stroke="black" points="842.14,-107.06 618.39,-107.06 618.39,-70.56 842.14,-70.56 842.14,-107.06"/>
<text text-anchor="middle" x="730.27" y="-89.76" font-family="Times,serif" font-size="14.00">my:SSHBastionReachability</text>
<text text-anchor="middle" x="730.27" y="-75.51" font-family="Times,serif" font-size="14.00">a score:AssetTrustworthinessAttribute</text>
</g>
<!-- NetIfRace -->
<g id="node3" class="node">
<title>NetIfRace</title>
<polygon fill="none" stroke="black" points="214,-216.06 0,-216.06 0,-179.56 214,-179.56 214,-216.06"/>
<text text-anchor="middle" x="107" y="-198.76" font-family="Times,serif" font-size="14.00">my:NetworkInterfaceRaceCondition</text>
<text text-anchor="middle" x="107" y="-184.51" font-family="Times,serif" font-size="14.00">a score:AssetBehaviour</text>
</g>
<!-- invis2 -->
<!-- NetIfRace&#45;&gt;invis2 -->
<g id="edge2" class="edge">
<title>NetIfRace&#45;&gt;invis2</title>
<path fill="none" stroke="black" d="M214.17,-197.81C317.89,-197.81 460.26,-197.81 460.26,-197.81"/>
<text text-anchor="middle" x="280" y="-198.76" font-family="Times,serif" font-size="14.00">score:undermines</text>
</g>
<!-- PortsExpo -->
<g id="node4" class="node">
<title>PortsExpo</title>
<polygon fill="none" stroke="black" points="847.02,-216.06 613.52,-216.06 613.52,-179.56 847.02,-179.56 847.02,-216.06"/>
<text text-anchor="middle" x="730.27" y="-198.76" font-family="Times,serif" font-size="14.00">my:PortsProtected</text>
<text text-anchor="middle" x="730.27" y="-184.51" font-family="Times,serif" font-size="14.00">a a score:AssetTrustworthinessAttribute</text>
</g>
<!-- invis1&#45;&gt;SSHAccess -->
<g id="edge3" class="edge">
<title>invis1&#45;&gt;SSHAccess</title>
<path fill="none" stroke="black" d="M462.26,-88.81C462.26,-88.81 536.85,-88.81 607.18,-88.81"/>
<polygon fill="black" stroke="black" points="616.75,-88.81 606.75,-93.31 612.96,-88.81 606.75,-88.81 606.75,-88.81 606.75,-88.81 612.96,-88.81 606.75,-84.31 616.75,-88.81"/>
</g>
<!-- if_flap -->
<g id="node7" class="node">
<title>if_flap</title>
<ellipse fill="none" stroke="black" cx="461.26" cy="-25.81" rx="115.26" ry="25.81"/>
<text text-anchor="middle" x="461.26" y="-26.76" font-family="Times,serif" font-size="14.00">my:interface_flapping</text>
<text text-anchor="middle" x="461.26" y="-12.51" font-family="Times,serif" font-size="14.00">a score:BehaviourAttribute</text>
</g>
<!-- invis1&#45;&gt;if_flap -->
<g id="edge5" class="edge">
<title>invis1&#45;&gt;if_flap</title>
<path fill="none" stroke="black" d="M461.26,-88.81C461.26,-88.81 461.26,-76.57 461.26,-62.88"/>
<polygon fill="black" stroke="black" points="461.26,-53.02 465.76,-63.02 461.26,-56.8 461.26,-63.02 461.26,-63.02 461.26,-63.02 461.26,-56.8 456.76,-63.02 461.26,-53.02"/>
<text text-anchor="middle" x="451.13" y="-63.14" font-family="Times,serif" font-size="14.00">score:via</text>
</g>
<!-- invis2&#45;&gt;PortsExpo -->
<g id="edge4" class="edge">
<title>invis2&#45;&gt;PortsExpo</title>
<path fill="none" stroke="black" d="M462.26,-197.81C462.26,-197.81 533.44,-197.81 602.3,-197.81"/>
<polygon fill="black" stroke="black" points="612.1,-197.81 602.1,-202.31 608.32,-197.81 602.1,-197.81 602.1,-197.81 602.1,-197.81 608.32,-197.81 602.1,-193.31 612.1,-197.81"/>
</g>
<!-- high_CPU_load -->
<g id="node8" class="node">
<title>high_CPU_load</title>
<ellipse fill="none" stroke="black" cx="461.26" cy="-134.81" rx="115.26" ry="25.81"/>
<text text-anchor="middle" x="461.26" y="-135.76" font-family="Times,serif" font-size="14.00">my:high_CPU_load</text>
<text text-anchor="middle" x="461.26" y="-121.51" font-family="Times,serif" font-size="14.00">a score:BehaviourAttribute</text>
</g>
<!-- invis2&#45;&gt;high_CPU_load -->
<g id="edge6" class="edge">
<title>invis2&#45;&gt;high_CPU_load</title>
<path fill="none" stroke="black" d="M461.26,-197.81C461.26,-197.81 461.26,-185.57 461.26,-171.88"/>
<polygon fill="black" stroke="black" points="461.26,-162.02 465.76,-172.02 461.26,-165.8 461.26,-172.02 461.26,-172.02 461.26,-172.02 461.26,-165.8 456.76,-172.02 461.26,-162.02"/>
<text text-anchor="middle" x="451.13" y="-172.14" font-family="Times,serif" font-size="14.00">score:via</text>
</g>
</g>
</svg>
