<?xml version="1.0" encoding="UTF-8" standalone="no"?>
<!DOCTYPE svg PUBLIC "-//W3C//DTD SVG 1.1//EN"
 "http://www.w3.org/Graphics/SVG/1.1/DTD/svg11.dtd">
<!-- Generated by graphviz version 12.1.0 (20240811.2233)
 -->
<!-- Title: DemoBehaviours Pages: 1 -->
<svg width="741pt" height="146pt"
 viewBox="0.00 0.00 741.13 146.37" xmlns="http://www.w3.org/2000/svg" xmlns:xlink="http://www.w3.org/1999/xlink">
<g id="graph0" class="graph" transform="scale(1 1) rotate(0) translate(4 142.37)">
<title>DemoBehaviours</title>
<polygon fill="white" stroke="none" points="-4,4 -4,-142.37 737.13,-142.37 737.13,4 -4,4"/>
<!-- NetworkInterfaceUnderLoad -->
<g id="node1" class="node">
<title>NetworkInterfaceUnderLoad</title>
<polygon fill="none" stroke="black" points="218.51,-138.37 24.01,-138.37 24.01,-101.87 218.51,-101.87 218.51,-138.37"/>
<text text-anchor="middle" x="121.26" y="-121.07" font-family="Times,serif" font-size="14.00">my:NetworkInterfaceUnderLoad</text>
<text text-anchor="middle" x="121.26" y="-106.82" font-family="Times,serif" font-size="14.00">a score:AssetBehaviour</text>
</g>
<!-- invis1 -->
<!-- NetworkInterfaceUnderLoad&#45;&gt;invis1 -->
<g id="edge1" class="edge">
<title>NetworkInterfaceUnderLoad&#45;&gt;invis1</title>
<path fill="none" stroke="black" d="M218.55,-120.12C267.12,-120.12 315.69,-120.12 364.26,-120.12"/>
</g>
<!-- CoreVPNReachability -->
<g id="node2" class="node">
<title>CoreVPNReachability</title>
<polygon fill="none" stroke="black" points="733.13,-138.37 509.38,-138.37 509.38,-101.87 733.13,-101.87 733.13,-138.37"/>
<text text-anchor="middle" x="621.26" y="-121.07" font-family="Times,serif" font-size="14.00">my:CoreVPNReachability</text>
<text text-anchor="middle" x="621.26" y="-106.82" font-family="Times,serif" font-size="14.00">a score:AssetTrustworthinessAttribute</text>
</g>
<!-- invis1&#45;&gt;CoreVPNReachability -->
<g id="edge2" class="edge">
<title>invis1&#45;&gt;CoreVPNReachability</title>
<path fill="none" stroke="black" d="M364.26,-120.12C364.26,-120.12 431.72,-120.12 497.52,-120.12"/>
<polygon fill="black" stroke="black" points="497.39,-123.62 507.39,-120.12 497.39,-116.62 497.39,-123.62"/>
<text text-anchor="middle" x="437.72" y="-124.07" font-family="Times,serif" font-size="14.00">score:undermines</text>
</g>
<!-- high_CPU_load -->
<g id="node4" class="node">
<title>high_CPU_load</title>
<ellipse fill="none" stroke="black" cx="115.26" cy="-25.81" rx="115.26" ry="25.81"/>
<text text-anchor="middle" x="115.26" y="-26.76" font-family="Times,serif" font-size="14.00">my:high_CPU_load</text>
<text text-anchor="middle" x="115.26" y="-12.51" font-family="Times,serif" font-size="14.00">a score:BehaviourAttribute</text>
</g>
<!-- invis1&#45;&gt;high_CPU_load -->
<g id="edge3" class="edge">
<title>invis1&#45;&gt;high_CPU_load</title>
<path fill="none" stroke="black" d="M364.26,-119.12C364.26,-119.12 257.51,-79.55 183.8,-52.22"/>
<polygon fill="black" stroke="black" points="174.78,-48.88 185.72,-48.13 178.33,-50.19 184.16,-52.35 184.16,-52.35 184.16,-52.35 178.33,-50.19 182.59,-56.57 174.78,-48.88"/>
<text text-anchor="middle" x="286.44" y="-70.57" font-family="Times,serif" font-size="14.00">score:via</text>
</g>
<!-- interface_flapping -->
<g id="node5" class="node">
<title>interface_flapping</title>
<ellipse fill="none" stroke="black" cx="364.26" cy="-25.81" rx="115.26" ry="25.81"/>
<text text-anchor="middle" x="364.26" y="-26.76" font-family="Times,serif" font-size="14.00">my:interface_flapping</text>
<text text-anchor="middle" x="364.26" y="-12.51" font-family="Times,serif" font-size="14.00">a score:BehaviourAttribute</text>
</g>
<!-- invis1&#45;&gt;interface_flapping -->
<g id="edge4" class="edge">
<title>invis1&#45;&gt;interface_flapping</title>
<path fill="none" stroke="black" d="M364.26,-119.12C364.26,-119.12 364.26,-88.95 364.26,-63.11"/>
<polygon fill="black" stroke="black" points="364.26,-53.25 368.76,-63.25 364.26,-57.03 364.26,-63.25 364.26,-63.25 364.26,-63.25 364.26,-57.03 359.76,-63.25 364.26,-53.25"/>
<text text-anchor="middle" x="388.63" y="-70.57" font-family="Times,serif" font-size="14.00">score:via</text>
</g>
<!-- disk_poor_IO -->
<g id="node6" class="node">
<title>disk_poor_IO</title>
<ellipse fill="none" stroke="black" cx="613.26" cy="-25.81" rx="115.26" ry="25.81"/>
<text text-anchor="middle" x="613.26" y="-26.76" font-family="Times,serif" font-size="14.00">my:disk_poor_IO</text>
<text text-anchor="middle" x="613.26" y="-12.51" font-family="Times,serif" font-size="14.00">a score:BehaviourAttribute</text>
</g>
<!-- invis1&#45;&gt;disk_poor_IO -->
<g id="edge5" class="edge">
<title>invis1&#45;&gt;disk_poor_IO</title>
<path fill="none" stroke="black" d="M364.26,-119.12C364.26,-119.12 471,-79.55 544.71,-52.22"/>
<polygon fill="black" stroke="black" points="553.74,-48.88 545.92,-56.57 550.19,-50.19 544.36,-52.35 544.36,-52.35 544.36,-52.35 550.19,-50.19 542.8,-48.13 553.74,-48.88"/>
<text text-anchor="middle" x="520.6" y="-70.57" font-family="Times,serif" font-size="14.00">score:via</text>
</g>
</g>
</svg>
