<?xml version="1.0" encoding="UTF-8" standalone="no"?>
<!DOCTYPE svg PUBLIC "-//W3C//DTD SVG 1.1//EN"
 "http://www.w3.org/Graphics/SVG/1.1/DTD/svg11.dtd">
<!-- Generated by graphviz version 12.1.0 (20240811.2233)
 -->
<!-- Pages: 1 -->
<svg width="1370pt" height="269pt"
 viewBox="0.00 0.00 1370.25 268.50" xmlns="http://www.w3.org/2000/svg" xmlns:xlink="http://www.w3.org/1999/xlink">
<g id="graph0" class="graph" transform="scale(1 1) rotate(0) translate(4 264.5)">
<polygon fill="white" stroke="none" points="-4,4 -4,-264.5 1366.25,-264.5 1366.25,4 -4,4"/>
<g id="clust1" class="cluster">
<title>cluster0</title>
<polygon fill="none" stroke="black" points="82.25,-8 82.25,-183.75 549.25,-183.75 549.25,-8 82.25,-8"/>
<text text-anchor="start" x="165" y="-167.45" font-family="Times,serif" font-size="14.00"> </text>
<text text-anchor="start" x="168.75" y="-167.45" font-family="Times,serif" font-weight="bold" font-size="14.00">my:NFSSharePattern a score:Pattern, rdfg:Graph</text>
<text text-anchor="start" x="462.75" y="-167.45" font-family="Times,serif" font-size="14.00"> </text>
</g>
<g id="clust2" class="cluster">
<title>cluster1</title>
<polygon fill="none" stroke="black" points="932.25,-8 932.25,-183.75 1354.25,-183.75 1354.25,-8 932.25,-8"/>
<text text-anchor="start" x="981.25" y="-167.45" font-family="Times,serif" font-size="14.00"> </text>
<text text-anchor="start" x="985" y="-167.45" font-family="Times,serif" font-weight="bold" font-size="14.00">my:BusinessLogicPattern a score:Pattern, rdfg:Graph</text>
<text text-anchor="start" x="1301.5" y="-167.45" font-family="Times,serif" font-size="14.00"> </text>
</g>
<g id="clust3" class="cluster">
<title>cluster2</title>
<polygon fill="none" stroke="black" points="557.25,-8 557.25,-183.75 924.25,-183.75 924.25,-8 557.25,-8"/>
<text text-anchor="start" x="569" y="-167.45" font-family="Times,serif" font-size="14.00"> </text>
<text text-anchor="start" x="572.75" y="-167.45" font-family="Times,serif" font-weight="bold" font-size="14.00">my:Solaris10SMTPDPattern a score:Pattern, rdfg:Graph</text>
<text text-anchor="start" x="908.75" y="-167.45" font-family="Times,serif" font-size="14.00"> </text>
</g>
<!-- asset00 -->
<g id="node1" class="node">
<title>asset00</title>
<polygon fill="none" stroke="black" points="227,-153.5 113.5,-153.5 113.5,-117 227,-117 227,-153.5"/>
<text text-anchor="middle" x="170.25" y="-136.2" font-family="Times,serif" font-size="14.00">my:LoadBalancer</text>
<text text-anchor="middle" x="170.25" y="-121.95" font-family="Times,serif" font-size="14.00">a score:Asset</text>
</g>
<!-- asset01 -->
<g id="node2" class="node">
<title>asset01</title>
<polygon fill="none" stroke="black" points="255.88,-52.5 90.62,-52.5 90.62,-16 255.88,-16 255.88,-52.5"/>
<text text-anchor="middle" x="173.25" y="-35.2" font-family="Times,serif" font-size="14.00">my:Solaris10StorageServer</text>
<text text-anchor="middle" x="173.25" y="-20.95" font-family="Times,serif" font-size="14.00">a score:Asset</text>
</g>
<!-- asset00&#45;&gt;asset01 -->
<g id="edge1" class="edge">
<title>asset00&#45;&gt;asset01</title>
<path fill="none" stroke="black" d="M170.79,-116.55C171.23,-101.91 171.87,-80.83 172.38,-63.81"/>
<polygon fill="black" stroke="black" points="172.68,-54.01 176.88,-64.15 172.57,-57.79 172.38,-64.01 172.38,-64.01 172.38,-64.01 172.57,-57.79 167.88,-63.87 172.68,-54.01"/>
<text text-anchor="middle" x="230.23" y="-85.7" font-family="Times,serif" font-size="14.00">my:in_front_of</text>
<text text-anchor="middle" x="230.23" y="-71.45" font-family="Times,serif" font-size="14.00">a score:asset_relation</text>
</g>
<!-- asset02 -->
<g id="node3" class="node">
<title>asset02</title>
<polygon fill="none" stroke="black" points="541.62,-52.5 404.88,-52.5 404.88,-16 541.62,-16 541.62,-52.5"/>
<text text-anchor="middle" x="473.25" y="-35.2" font-family="Times,serif" font-size="14.00">my:LinuxWorkstation</text>
<text text-anchor="middle" x="473.25" y="-20.95" font-family="Times,serif" font-size="14.00">a score:Asset</text>
</g>
<!-- asset01&#45;&gt;asset02 -->
<g id="edge2" class="edge">
<title>asset01&#45;&gt;asset02</title>
<path fill="none" stroke="black" d="M256.02,-34.25C298.85,-34.25 350.89,-34.25 393.3,-34.25"/>
<polygon fill="black" stroke="black" points="403.21,-34.25 393.21,-38.75 399.43,-34.25 393.21,-34.25 393.21,-34.25 393.21,-34.25 399.43,-34.25 393.21,-29.75 403.21,-34.25"/>
<text text-anchor="middle" x="330.38" y="-52.45" font-family="Times,serif" font-size="14.00">my:shares_mounted_by</text>
<text text-anchor="middle" x="330.38" y="-38.2" font-family="Times,serif" font-size="14.00">a score:asset_relation</text>
</g>
<!-- asset03 -->
<g id="node4" class="node">
<title>asset03</title>
<polygon fill="none" stroke="black" points="540.88,-153.5 369.62,-153.5 369.62,-117 540.88,-117 540.88,-153.5"/>
<text text-anchor="middle" x="455.25" y="-136.2" font-family="Times,serif" font-size="14.00">my:OpenSolarisWorkstation</text>
<text text-anchor="middle" x="455.25" y="-121.95" font-family="Times,serif" font-size="14.00">a score:Asset</text>
</g>
<!-- asset03&#45;&gt;asset00 -->
<g id="edge4" class="edge">
<title>asset03&#45;&gt;asset00</title>
<path fill="none" stroke="black" d="M369.14,-135.25C327.2,-135.25 277.5,-135.25 238.27,-135.25"/>
<polygon fill="black" stroke="black" points="228.46,-135.25 238.46,-130.75 232.24,-135.25 238.46,-135.25 238.46,-135.25 238.46,-135.25 232.24,-135.25 238.46,-139.75 228.46,-135.25"/>
<text text-anchor="middle" x="298.31" y="-153.45" font-family="Times,serif" font-size="14.00">my:remotely_manages</text>
<text text-anchor="middle" x="298.31" y="-139.2" font-family="Times,serif" font-size="14.00">a score:asset_relation</text>
</g>
<!-- asset03&#45;&gt;asset02 -->
<g id="edge3" class="edge">
<title>asset03&#45;&gt;asset02</title>
<path fill="none" stroke="black" d="M433.68,-107.11C432.31,-104.47 431.13,-101.75 430.25,-99 426.4,-86.93 424.83,-81.95 430.25,-70.5 433.47,-63.69 438.72,-57.76 444.46,-52.81"/>
<polygon fill="black" stroke="black" points="430.62,-108.83 438.87,-115.47 436.57,-105.13 430.62,-108.83"/>
<text text-anchor="middle" x="491.75" y="-85.7" font-family="Times,serif" font-size="14.00">my:remotely_accesses</text>
<text text-anchor="middle" x="491.75" y="-71.45" font-family="Times,serif" font-size="14.00">a score:asset_relation</text>
</g>
<!-- asset10 -->
<g id="node5" class="node">
<title>asset10</title>
<polygon fill="none" stroke="black" points="1046.25,-153.5 958.25,-153.5 958.25,-117 1046.25,-117 1046.25,-153.5"/>
<text text-anchor="middle" x="1002.25" y="-136.2" font-family="Times,serif" font-size="14.00">my:smptd</text>
<text text-anchor="middle" x="1002.25" y="-121.95" font-family="Times,serif" font-size="14.00">a score:Asset</text>
</g>
<!-- asset11 -->
<g id="node6" class="node">
<title>asset11</title>
<polygon fill="none" stroke="black" points="1064.62,-52.5 939.88,-52.5 939.88,-16 1064.62,-16 1064.62,-52.5"/>
<text text-anchor="middle" x="1002.25" y="-35.2" font-family="Times,serif" font-size="14.00">my:CompanyPhone</text>
<text text-anchor="middle" x="1002.25" y="-20.95" font-family="Times,serif" font-size="14.00">a score:Asset</text>
</g>
<!-- asset10&#45;&gt;asset11 -->
<g id="edge5" class="edge">
<title>asset10&#45;&gt;asset11</title>
<path fill="none" stroke="black" d="M1002.25,-105.52C1002.25,-88.46 1002.25,-67.39 1002.25,-52.8"/>
<polygon fill="black" stroke="black" points="998.75,-105.04 1002.25,-115.04 1005.75,-105.04 998.75,-105.04"/>
<text text-anchor="middle" x="1060.38" y="-85.7" font-family="Times,serif" font-size="14.00">score:syncs_with</text>
<text text-anchor="middle" x="1060.38" y="-71.45" font-family="Times,serif" font-size="14.00">a score:asset_relation</text>
</g>
<!-- asset12 -->
<g id="node7" class="node">
<title>asset12</title>
<polygon fill="none" stroke="black" points="1346.62,-52.5 1197.88,-52.5 1197.88,-16 1346.62,-16 1346.62,-52.5"/>
<text text-anchor="middle" x="1272.25" y="-35.2" font-family="Times,serif" font-size="14.00">my:VideoCallingLaptop</text>
<text text-anchor="middle" x="1272.25" y="-20.95" font-family="Times,serif" font-size="14.00">a score:Asset</text>
</g>
<!-- asset10&#45;&gt;asset12 -->
<g id="edge7" class="edge">
<title>asset10&#45;&gt;asset12</title>
<path fill="none" stroke="black" d="M1057.59,-119.45C1078.07,-113.59 1101.38,-106.47 1122.25,-99 1161.01,-85.12 1204.17,-66.43 1234.2,-52.87"/>
<polygon fill="black" stroke="black" points="1056.66,-116.07 1047.99,-122.16 1058.56,-122.81 1056.66,-116.07"/>
<text text-anchor="middle" x="1250.91" y="-85.7" font-family="Times,serif" font-size="14.00">score:syncs_with</text>
<text text-anchor="middle" x="1250.91" y="-71.45" font-family="Times,serif" font-size="14.00">a score:asset_relation</text>
</g>
<!-- asset11&#45;&gt;asset12 -->
<g id="edge6" class="edge">
<title>asset11&#45;&gt;asset12</title>
<path fill="none" stroke="black" d="M1064.87,-34.25C1100.96,-34.25 1146.85,-34.25 1186.28,-34.25"/>
<polygon fill="black" stroke="black" points="1196.27,-34.25 1186.27,-38.75 1192.49,-34.25 1186.27,-34.25 1186.27,-34.25 1186.27,-34.25 1192.49,-34.25 1186.27,-29.75 1196.27,-34.25"/>
<text text-anchor="middle" x="1131.25" y="-52.45" font-family="Times,serif" font-size="14.00">my:provisioned_by</text>
<text text-anchor="middle" x="1131.25" y="-38.2" font-family="Times,serif" font-size="14.00">a score:asset_relation</text>
</g>
<!-- asset20 -->
<g id="node8" class="node">
<title>asset20</title>
<polygon fill="none" stroke="black" points="679,-153.5 565.5,-153.5 565.5,-117 679,-117 679,-153.5"/>
<text text-anchor="middle" x="622.25" y="-136.2" font-family="Times,serif" font-size="14.00">my:LoadBalancer</text>
<text text-anchor="middle" x="622.25" y="-121.95" font-family="Times,serif" font-size="14.00">a score:Asset</text>
</g>
<!-- asset21 -->
<g id="node9" class="node">
<title>asset21</title>
<polygon fill="none" stroke="black" points="916.12,-153.5 812.38,-153.5 812.38,-117 916.12,-117 916.12,-153.5"/>
<text text-anchor="middle" x="864.25" y="-136.2" font-family="Times,serif" font-size="14.00">my:SSHBastion</text>
<text text-anchor="middle" x="864.25" y="-121.95" font-family="Times,serif" font-size="14.00">a score:Asset</text>
</g>
<!-- asset20&#45;&gt;asset21 -->
<g id="edge8" class="edge">
<title>asset20&#45;&gt;asset21</title>
<path fill="none" stroke="black" d="M679.29,-135.25C715.92,-135.25 763.52,-135.25 801.26,-135.25"/>
<polygon fill="black" stroke="black" points="810.91,-135.25 800.91,-139.75 807.13,-135.25 800.91,-135.25 800.91,-135.25 800.91,-135.25 807.13,-135.25 800.91,-130.75 810.91,-135.25"/>
<text text-anchor="middle" x="745.69" y="-153.45" font-family="Times,serif" font-size="14.00">my:in_front_of</text>
<text text-anchor="middle" x="745.69" y="-139.2" font-family="Times,serif" font-size="14.00">a score:asset_relation</text>
</g>
<!-- asset22 -->
<g id="node10" class="node">
<title>asset22</title>
<polygon fill="none" stroke="black" points="666.25,-52.5 578.25,-52.5 578.25,-16 666.25,-16 666.25,-52.5"/>
<text text-anchor="middle" x="622.25" y="-35.2" font-family="Times,serif" font-size="14.00">my:smptd</text>
<text text-anchor="middle" x="622.25" y="-20.95" font-family="Times,serif" font-size="14.00">a score:Asset</text>
</g>
<!-- asset20&#45;&gt;asset22 -->
<g id="edge9" class="edge">
<title>asset20&#45;&gt;asset22</title>
<path fill="none" stroke="black" d="M622.25,-116.55C622.25,-101.91 622.25,-80.83 622.25,-63.81"/>
<polygon fill="black" stroke="black" points="622.25,-54.01 626.75,-64.01 622.25,-57.8 622.25,-64.01 622.25,-64.01 622.25,-64.01 622.25,-57.8 617.75,-64.01 622.25,-54.01"/>
<text text-anchor="middle" x="680.38" y="-85.7" font-family="Times,serif" font-size="14.00">my:in_front_of</text>
<text text-anchor="middle" x="680.38" y="-71.45" font-family="Times,serif" font-size="14.00">a score:asset_relation</text>
</g>
<!-- threat0 -->
<g id="node11" class="node">
<title>threat0</title>
<polygon fill="none" stroke="black" points="146.5,-260.5 0,-260.5 0,-224 146.5,-224 146.5,-260.5"/>
<text text-anchor="middle" x="73.25" y="-243.2" font-family="Times,serif" font-size="14.00">my:SunRPCBindBotnet</text>
<text text-anchor="middle" x="73.25" y="-228.95" font-family="Times,serif" font-size="14.00">a score:Threat</text>
</g>
<!-- threat0&#45;&gt;asset00 -->
<g id="edge11" class="edge">
<title>threat0&#45;&gt;asset00</title>
<path fill="none" stroke="black" d="M89.27,-223.91C97.53,-214.97 108.12,-203.5 118.9,-191.83"/>
<polygon fill="black" stroke="black" points="125.54,-184.64 122.06,-195.04 122.98,-187.42 118.76,-191.99 118.76,-191.99 118.76,-191.99 122.98,-187.42 115.45,-188.93 125.54,-184.64"/>
<text text-anchor="middle" x="163.09" y="-192.7" font-family="Times,serif" font-size="14.00">score:introduces</text>
</g>
<!-- threat1 -->
<g id="node12" class="node">
<title>threat1</title>
<polygon fill="none" stroke="black" points="924,-260.5 804.5,-260.5 804.5,-224 924,-224 924,-260.5"/>
<text text-anchor="middle" x="864.25" y="-243.2" font-family="Times,serif" font-size="14.00">my:SunSSHBotnet</text>
<text text-anchor="middle" x="864.25" y="-228.95" font-family="Times,serif" font-size="14.00">a score:Threat</text>
</g>
<!-- threat1&#45;&gt;asset00 -->
<g id="edge14" class="edge">
<title>threat1&#45;&gt;asset00</title>
<path fill="none" stroke="black" d="M804.14,-236.96C711.4,-229.78 527.75,-213.33 371.01,-185.67"/>
<polygon fill="black" stroke="black" points="361.45,-183.96 372.09,-181.3 365.17,-184.63 371.29,-185.72 371.29,-185.72 371.29,-185.72 365.17,-184.63 370.5,-190.15 361.45,-183.96"/>
<text text-anchor="middle" x="542.1" y="-192.7" font-family="Times,serif" font-size="14.00">score:introduces</text>
</g>
<!-- threat1&#45;&gt;asset10 -->
<g id="edge12" class="edge">
<title>threat1&#45;&gt;asset10</title>
<path fill="none" stroke="black" d="M924.34,-224.91C936,-220.03 947.58,-213.82 957.25,-206 962.16,-202.03 966.7,-197.38 970.87,-192.39"/>
<polygon fill="black" stroke="black" points="976.77,-184.71 974.24,-195.38 974.46,-187.71 970.68,-192.64 970.68,-192.64 970.68,-192.64 974.46,-187.71 967.11,-189.9 976.77,-184.71"/>
<text text-anchor="middle" x="1014.3" y="-192.7" font-family="Times,serif" font-size="14.00">score:introduces</text>
</g>
<!-- threat1&#45;&gt;asset21 -->
<g id="edge13" class="edge">
<title>threat1&#45;&gt;asset21</title>
<path fill="none" stroke="black" d="M864.25,-223.91C864.25,-215.74 864.25,-205.47 864.25,-194.85"/>
<polygon fill="black" stroke="black" points="864.25,-184.96 868.75,-194.96 864.25,-188.75 864.25,-194.96 864.25,-194.96 864.25,-194.96 864.25,-188.75 859.75,-194.96 864.25,-184.96"/>
<text text-anchor="middle" x="908.5" y="-192.7" font-family="Times,serif" font-size="14.00">score:introduces</text>
</g>
<!-- cs0 -->
<g id="node13" class="node">
<title>cs0</title>
<polygon fill="none" stroke="black" points="368.38,-260.5 164.12,-260.5 164.12,-224 368.38,-224 368.38,-260.5"/>
<text text-anchor="middle" x="266.25" y="-243.2" font-family="Times,serif" font-size="14.00">my:SunRPCBindMisconfiguration</text>
<text text-anchor="middle" x="266.25" y="-228.95" font-family="Times,serif" font-size="14.00">a score:ControlStrategy</text>
</g>
<!-- cs0&#45;&gt;asset00 -->
<g id="edge10" class="edge">
<title>cs0&#45;&gt;asset00</title>
<path fill="none" stroke="black" d="M250.4,-223.91C242.22,-214.97 231.74,-203.5 221.07,-191.83"/>
<polygon fill="black" stroke="black" points="214.5,-184.65 224.57,-188.99 217.05,-187.44 221.25,-192.03 221.25,-192.03 221.25,-192.03 217.05,-187.44 217.93,-195.06 214.5,-184.65"/>
<text text-anchor="middle" x="276.71" y="-192.7" font-family="Times,serif" font-size="14.00">score:introduces</text>
</g>
</g>
</svg>
