<?xml version="1.0" encoding="UTF-8" standalone="no"?>
<!DOCTYPE svg PUBLIC "-//W3C//DTD SVG 1.1//EN"
 "http://www.w3.org/Graphics/SVG/1.1/DTD/svg11.dtd">
<!-- Generated by graphviz version 12.1.0 (20240811.2233)
 -->
<!-- Pages: 1 -->
<svg width="1047pt" height="131pt"
 viewBox="0.00 0.00 1046.62 130.75" xmlns="http://www.w3.org/2000/svg" xmlns:xlink="http://www.w3.org/1999/xlink">
<g id="graph0" class="graph" transform="scale(1 1) rotate(0) translate(4 126.75)">
<polygon fill="white" stroke="none" points="-4,4 -4,-126.75 1042.62,-126.75 1042.62,4 -4,4"/>
<!-- pattern0 -->
<g id="node1" class="node">
<title>pattern0</title>
<polygon fill="none" stroke="black" points="380.62,-36 97.62,-36 97.62,0 380.62,0 380.62,-36"/>
<text text-anchor="middle" x="239.12" y="-11.82" font-family="Times,serif" font-size="14.00">my:NFSSharePattern a score:Pattern, rdfg:Graph</text>
</g>
<!-- pattern1 -->
<g id="node2" class="node">
<title>pattern1</title>
<polygon fill="none" stroke="black" points="1038.62,-36 731.62,-36 731.62,0 1038.62,0 1038.62,-36"/>
<text text-anchor="middle" x="885.12" y="-11.82" font-family="Times,serif" font-size="14.00">my:BusinessLogicPattern a score:Pattern, rdfg:Graph</text>
</g>
<!-- pattern2 -->
<g id="node3" class="node">
<title>pattern2</title>
<polygon fill="none" stroke="black" points="713.38,-36 398.88,-36 398.88,0 713.38,0 713.38,-36"/>
<text text-anchor="middle" x="556.12" y="-11.82" font-family="Times,serif" font-size="14.00">my:Solaris10SmtpdPattern a score:Pattern, rdfg:Graph</text>
</g>
<!-- threat0 -->
<g id="node4" class="node">
<title>threat0</title>
<polygon fill="none" stroke="black" points="144.25,-122.75 0,-122.75 0,-86.25 144.25,-86.25 144.25,-122.75"/>
<text text-anchor="middle" x="72.12" y="-105.45" font-family="Times,serif" font-size="14.00">my:SunRPCbindBotnet</text>
<text text-anchor="middle" x="72.12" y="-91.2" font-family="Times,serif" font-size="14.00">a score:Threat</text>
</g>
<!-- threat0&#45;&gt;pattern0 -->
<g id="edge2" class="edge">
<title>threat0&#45;&gt;pattern0</title>
<path fill="none" stroke="black" d="M100.55,-85.9C116.96,-76.03 138.16,-63.77 157.62,-54 166.62,-49.48 176.33,-44.99 185.81,-40.81"/>
<polygon fill="black" stroke="black" points="194.85,-36.89 187.47,-45 191.38,-38.39 185.67,-40.87 185.67,-40.87 185.67,-40.87 191.38,-38.39 183.88,-36.74 194.85,-36.89"/>
<text text-anchor="middle" x="201.88" y="-54.95" font-family="Times,serif" font-size="14.00">score:introduces</text>
</g>
<!-- threat1 -->
<g id="node5" class="node">
<title>threat1</title>
<polygon fill="none" stroke="black" points="615.88,-122.75 496.38,-122.75 496.38,-86.25 615.88,-86.25 615.88,-122.75"/>
<text text-anchor="middle" x="556.12" y="-105.45" font-family="Times,serif" font-size="14.00">my:SunSSHBotnet</text>
<text text-anchor="middle" x="556.12" y="-91.2" font-family="Times,serif" font-size="14.00">a score:Threat</text>
</g>
<!-- threat1&#45;&gt;pattern0 -->
<g id="edge5" class="edge">
<title>threat1&#45;&gt;pattern0</title>
<path fill="none" stroke="black" d="M496.13,-87.51C444.89,-73.85 370.89,-54.12 315.44,-39.34"/>
<polygon fill="black" stroke="black" points="305.79,-36.77 316.61,-35 309.45,-37.74 315.45,-39.35 315.45,-39.35 315.45,-39.35 309.45,-37.74 314.3,-43.69 305.79,-36.77"/>
<text text-anchor="middle" x="460.85" y="-54.95" font-family="Times,serif" font-size="14.00">score:introduces</text>
</g>
<!-- threat1&#45;&gt;pattern1 -->
<g id="edge3" class="edge">
<title>threat1&#45;&gt;pattern1</title>
<path fill="none" stroke="black" d="M616.09,-88.1C669.48,-74.39 747.96,-54.23 806.39,-39.22"/>
<polygon fill="black" stroke="black" points="815.88,-36.79 807.31,-43.63 812.21,-37.73 806.19,-39.27 806.19,-39.27 806.19,-39.27 812.21,-37.73 805.07,-34.91 815.88,-36.79"/>
<text text-anchor="middle" x="784.57" y="-54.95" font-family="Times,serif" font-size="14.00">score:introduces</text>
</g>
<!-- threat1&#45;&gt;pattern2 -->
<g id="edge4" class="edge">
<title>threat1&#45;&gt;pattern2</title>
<path fill="none" stroke="black" d="M556.12,-85.99C556.12,-74.89 556.12,-60.26 556.12,-47.51"/>
<polygon fill="black" stroke="black" points="556.13,-37.7 560.63,-47.7 556.13,-41.49 556.13,-47.7 556.13,-47.7 556.13,-47.7 556.13,-41.49 551.63,-47.7 556.13,-37.7"/>
<text text-anchor="middle" x="600.38" y="-54.95" font-family="Times,serif" font-size="14.00">score:introduces</text>
</g>
<!-- cs0 -->
<g id="node6" class="node">
<title>cs0</title>
<polygon fill="none" stroke="black" points="364.12,-122.75 162.12,-122.75 162.12,-86.25 364.12,-86.25 364.12,-122.75"/>
<text text-anchor="middle" x="263.12" y="-105.45" font-family="Times,serif" font-size="14.00">my:SunRPCbindMisconfiguration</text>
<text text-anchor="middle" x="263.12" y="-91.2" font-family="Times,serif" font-size="14.00">a score:ControlStrategy</text>
</g>
<!-- cs0&#45;&gt;pattern0 -->
<g id="edge1" class="edge">
<title>cs0&#45;&gt;pattern0</title>
<path fill="none" stroke="black" d="M258.15,-85.99C254.97,-74.77 250.76,-59.97 247.11,-47.12"/>
<polygon fill="black" stroke="black" points="244.42,-37.66 251.49,-46.05 245.46,-41.3 247.16,-47.28 247.16,-47.28 247.16,-47.28 245.46,-41.3 242.83,-48.51 244.42,-37.66"/>
<text text-anchor="middle" x="296.81" y="-54.95" font-family="Times,serif" font-size="14.00">score:introduces</text>
</g>
</g>
</svg>
