<?xml version="1.0" encoding="UTF-8" standalone="no"?>
<!DOCTYPE svg PUBLIC "-//W3C//DTD SVG 1.1//EN"
 "http://www.w3.org/Graphics/SVG/1.1/DTD/svg11.dtd">
<!-- Generated by graphviz version 12.1.0 (20240811.2233)
 -->
<!-- Pages: 1 -->
<svg width="1047pt" height="131pt"
 viewBox="0.00 0.00 1046.62 130.75" xmlns="http://www.w3.org/2000/svg" xmlns:xlink="http://www.w3.org/1999/xlink">
<g id="graph0" class="graph" transform="scale(1 1) rotate(0) translate(4 126.75)">
<polygon fill="white" stroke="none" points="-4,4 -4,-126.75 1042.62,-126.75 1042.62,4 -4,4"/>
<!-- pattern0 -->
<g id="node1" class="node">
<title>pattern0</title>
<polygon fill="none" stroke="black" points="380.62,-36 97.62,-36 97.62,0 380.62,0 380.62,-36"/>
<text text-anchor="middle" x="239.12" y="-11.82" font-family="Times,serif" font-size="14.00">my:NFSSharePattern a score:Pattern, rdfg:Graph</text>
</g>
<!-- pattern1 -->
<g id="node2" class="node">
<title>pattern1</title>
<polygon fill="none" stroke="black" points="1038.62,-36 731.62,-36 731.62,0 1038.62,0 1038.62,-36"/>
<text text-anchor="middle" x="885.12" y="-11.82" font-family="Times,serif" font-size="14.00">my:BusinessLogicPattern a score:Pattern, rdfg:Graph</text>
</g>
<!-- pattern2 -->
<g id="node3" class="node">
<title>pattern2</title>
<polygon fill="none" stroke="black" points="713.38,-36 398.88,-36 398.88,0 713.38,0 713.38,-36"/>
<text text-anchor="middle" x="556.12" y="-11.82" font-family="Times,serif" font-size="14.00">my:Solaris10SmtpdPattern a score:Pattern, rdfg:Graph</text>
</g>
<!-- threat0 -->
<g id="node4" class="node">
<title>threat0</title>
<polygon fill="none" stroke="black" points="144.25,-122.75 0,-122.75 0,-86.25 144.25,-86.25 144.25,-122.75"/>
<text text-anchor="middle" x="72.12" y="-105.45" font-family="Times,serif" font-size="14.00">my:SunRPCbindBotnet</text>
<text text-anchor="middle" x="72.12" y="-91.2" font-family="Times,serif" font-size="14.00">a score:Threat</text>
</g>
<!-- threat0&#45;&gt;pattern0 -->
<g id="edge2" class="edge">
<title>threat0&#45;&gt;pattern0</title>
<path fill="none" stroke="black" d="M100.55,-85.9C116.96,-76.03 138.16,-63.77 157.62,-54 166.52,-49.53 176.13,-45.09 185.51,-40.94"/>
<polygon fill="black" stroke="black" points="186.8,-44.2 194.58,-37 184.01,-37.78 186.8,-44.2"/>
<text text-anchor="middle" x="201.88" y="-54.95" font-family="Times,serif" font-size="14.00">score:introduces</text>
</g>
<!-- threat1 -->
<g id="node5" class="node">
<title>threat1</title>
<polygon fill="none" stroke="black" points="615.88,-122.75 496.38,-122.75 496.38,-86.25 615.88,-86.25 615.88,-122.75"/>
<text text-anchor="middle" x="556.12" y="-105.45" font-family="Times,serif" font-size="14.00">my:SunSSHBotnet</text>
<text text-anchor="middle" x="556.12" y="-91.2" font-family="Times,serif" font-size="14.00">a score:Threat</text>
</g>
<!-- threat1&#45;&gt;pattern0 -->
<g id="edge5" class="edge">
<title>threat1&#45;&gt;pattern0</title>
<path fill="none" stroke="black" d="M496.13,-87.51C444.89,-73.85 370.89,-54.12 315.44,-39.34"/>
<polygon fill="black" stroke="black" points="316.64,-36.04 306.08,-36.85 314.84,-42.8 316.64,-36.04"/>
<text text-anchor="middle" x="460.85" y="-54.95" font-family="Times,serif" font-size="14.00">score:introduces</text>
</g>
<!-- threat1&#45;&gt;pattern1 -->
<g id="edge3" class="edge">
<title>threat1&#45;&gt;pattern1</title>
<path fill="none" stroke="black" d="M616.09,-88.1C669.37,-74.42 747.63,-54.31 806.03,-39.32"/>
<polygon fill="black" stroke="black" points="806.78,-42.74 815.59,-36.86 805.04,-35.96 806.78,-42.74"/>
<text text-anchor="middle" x="784.57" y="-54.95" font-family="Times,serif" font-size="14.00">score:introduces</text>
</g>
<!-- threat1&#45;&gt;pattern2 -->
<g id="edge4" class="edge">
<title>threat1&#45;&gt;pattern2</title>
<path fill="none" stroke="black" d="M556.12,-85.99C556.12,-75 556.12,-60.56 556.12,-47.91"/>
<polygon fill="black" stroke="black" points="559.63,-48 556.13,-38 552.63,-48 559.63,-48"/>
<text text-anchor="middle" x="600.38" y="-54.95" font-family="Times,serif" font-size="14.00">score:introduces</text>
</g>
<!-- cs0 -->
<g id="node6" class="node">
<title>cs0</title>
<polygon fill="none" stroke="black" points="364.12,-122.75 162.12,-122.75 162.12,-86.25 364.12,-86.25 364.12,-122.75"/>
<text text-anchor="middle" x="263.12" y="-105.45" font-family="Times,serif" font-size="14.00">my:SunRPCbindMisconfiguration</text>
<text text-anchor="middle" x="263.12" y="-91.2" font-family="Times,serif" font-size="14.00">a score:ControlStrategy</text>
</g>
<!-- cs0&#45;&gt;pattern0 -->
<g id="edge1" class="edge">
<title>cs0&#45;&gt;pattern0</title>
<path fill="none" stroke="black" d="M258.15,-85.99C255,-74.89 250.85,-60.26 247.22,-47.51"/>
<polygon fill="black" stroke="black" points="250.6,-46.61 244.5,-37.94 243.87,-48.52 250.6,-46.61"/>
<text text-anchor="middle" x="296.81" y="-54.95" font-family="Times,serif" font-size="14.00">score:introduces</text>
</g>
</g>
</svg>
