<?xml version="1.0" encoding="UTF-8" standalone="no"?>
<!DOCTYPE svg PUBLIC "-//W3C//DTD SVG 1.1//EN"
 "http://www.w3.org/Graphics/SVG/1.1/DTD/svg11.dtd">
<!-- Generated by graphviz version 12.1.0 (20240811.2233)
 -->
<!-- Title: SemiFinal Pages: 1 -->
<svg width="1052pt" height="550pt"
 viewBox="0.00 0.00 1052.00 550.00" xmlns="http://www.w3.org/2000/svg" xmlns:xlink="http://www.w3.org/1999/xlink">
<g id="graph0" class="graph" transform="scale(1 1) rotate(0) translate(4 546)">
<title>SemiFinal</title>
<polygon fill="white" stroke="none" points="-4,4 -4,-546 1048,-546 1048,4 -4,4"/>
<g id="clust1" class="cluster">
<title>cluster0</title>
<polygon fill="none" stroke="black" points="8,-8 8,-534 659,-534 659,-8 8,-8"/>
<text text-anchor="start" x="291.12" y="-517.7" font-family="Times,serif" font-weight="bold" font-size="14.00">Causal entities</text>
</g>
<g id="clust3" class="cluster">
<title>cluster1</title>
<polygon fill="none" stroke="black" points="667,-180.5 667,-341.25 1036,-341.25 1036,-180.5 667,-180.5"/>
<text text-anchor="start" x="799" y="-324.95" font-family="Times,serif" font-weight="bold" font-size="14.00">Structural entities</text>
</g>
<!-- CausalEntity -->
<g id="node1" class="node">
<title>CausalEntity</title>
<polygon fill="none" stroke="black" points="202.62,-138.25 115.38,-138.25 115.38,-102.25 202.62,-102.25 202.62,-138.25"/>
<text text-anchor="middle" x="159" y="-114.08" font-family="Times,serif" font-size="14.00">Causal entity</text>
</g>
<!-- Likelihood -->
<g id="node2" class="node">
<title>Likelihood</title>
<polygon fill="none" stroke="black" points="196.62,-52 121.38,-52 121.38,-16 196.62,-16 196.62,-52"/>
<text text-anchor="middle" x="159" y="-27.82" font-family="Times,serif" font-size="14.00">Likelihood</text>
</g>
<!-- CausalEntity&#45;&gt;Likelihood -->
<g id="edge9" class="edge">
<title>CausalEntity&#45;&gt;Likelihood</title>
<path fill="none" stroke="black" d="M159,-101.79C159,-90.72 159,-76.14 159,-63.43"/>
<polygon fill="black" stroke="black" points="159,-53.65 163.5,-63.65 159,-57.43 159,-63.65 159,-63.65 159,-63.65 159,-57.43 154.5,-63.65 159,-53.65"/>
<text text-anchor="middle" x="168" y="-70.95" font-family="Times,serif" font-size="14.00">has</text>
</g>
<!-- Threat -->
<g id="node3" class="node">
<title>Threat</title>
<polygon fill="none" stroke="black" points="301,-503.75 247,-503.75 247,-467.75 301,-467.75 301,-503.75"/>
<text text-anchor="middle" x="274" y="-479.57" font-family="Times,serif" font-size="14.00">Threat</text>
</g>
<!-- Threat&#45;&gt;CausalEntity -->
<g id="edge2" class="edge">
<title>Threat&#45;&gt;CausalEntity</title>
<path fill="none" stroke="black" d="M246.94,-481.11C184.17,-471.9 34,-445.21 34,-400.5 34,-400.5 34,-400.5 34,-205.5 34,-169.09 70.91,-147.38 104.62,-135.13"/>
<polygon fill="black" stroke="black" points="113.78,-132.03 105.75,-139.5 110.2,-133.24 104.31,-135.24 104.31,-135.24 104.31,-135.24 110.2,-133.24 102.86,-130.98 113.78,-132.03"/>
<text text-anchor="middle" x="66.25" y="-286.82" font-family="Times,serif" font-size="14.00">sub&#45;class of</text>
</g>
<!-- ThreatCause -->
<g id="node4" class="node">
<title>ThreatCause</title>
<polygon fill="none" stroke="black" points="201.5,-311 116.5,-311 116.5,-275 201.5,-275 201.5,-311"/>
<text text-anchor="middle" x="159" y="-286.82" font-family="Times,serif" font-size="14.00">Threat cause</text>
</g>
<!-- Threat&#45;&gt;ThreatCause -->
<g id="edge10" class="edge">
<title>Threat&#45;&gt;ThreatCause</title>
<path fill="none" stroke="black" d="M246.67,-477.44C219,-468.41 177.7,-450.1 159,-417.5 142.27,-388.34 146.04,-348.57 151.46,-322.13"/>
<polygon fill="black" stroke="black" points="153.65,-312.53 155.82,-323.28 152.81,-316.21 151.43,-322.28 151.43,-322.28 151.43,-322.28 152.81,-316.21 147.04,-321.28 153.65,-312.53"/>
<text text-anchor="middle" x="186" y="-393.32" font-family="Times,serif" font-size="14.00">caused by</text>
</g>
<!-- ControlStrategy -->
<g id="node5" class="node">
<title>ControlStrategy</title>
<polygon fill="none" stroke="black" points="325.88,-417.5 222.12,-417.5 222.12,-381.5 325.88,-381.5 325.88,-417.5"/>
<text text-anchor="middle" x="274" y="-393.32" font-family="Times,serif" font-size="14.00">Control strategy</text>
</g>
<!-- Threat&#45;&gt;ControlStrategy -->
<g id="edge12" class="edge">
<title>Threat&#45;&gt;ControlStrategy</title>
<path fill="none" stroke="black" d="M274,-467.29C274,-456.22 274,-441.64 274,-428.93"/>
<polygon fill="black" stroke="black" points="274,-419.15 278.5,-429.15 274,-422.93 274,-429.15 274,-429.15 274,-429.15 274,-422.93 269.5,-429.15 274,-419.15"/>
<text text-anchor="middle" x="307" y="-436.45" font-family="Times,serif" font-size="14.00">triggered by</text>
<text text-anchor="middle" x="238.38" y="-418.88" font-family="Times,serif" font-size="14.00">card.=0..n &#160;&#160;&#160;</text>
</g>
<!-- AssetBehaviour -->
<g id="node9" class="node">
<title>AssetBehaviour</title>
<polygon fill="none" stroke="black" points="437.62,-311.25 326.38,-311.25 326.38,-274.75 437.62,-274.75 437.62,-311.25"/>
<text text-anchor="middle" x="382" y="-293.95" font-family="Times,serif" font-size="14.00">Asset behaviour /</text>
<text text-anchor="middle" x="382" y="-279.7" font-family="Times,serif" font-size="14.00">threat effect</text>
</g>
<!-- Threat&#45;&gt;AssetBehaviour -->
<g id="edge13" class="edge">
<title>Threat&#45;&gt;AssetBehaviour</title>
<path fill="none" stroke="black" d="M301.21,-477.32C315.93,-471.96 333.24,-463.24 344,-449.75 373.5,-412.77 380.58,-356.24 382,-322.42"/>
<polygon fill="black" stroke="black" points="382.27,-312.69 386.49,-322.81 382.16,-316.47 382,-322.69 382,-322.69 382,-322.69 382.16,-316.47 377.5,-322.57 382.27,-312.69"/>
<text text-anchor="middle" x="394.77" y="-393.32" font-family="Times,serif" font-size="14.00">induces</text>
</g>
<!-- Asset -->
<g id="node11" class="node">
<title>Asset</title>
<polygon fill="none" stroke="black" points="729,-311 675,-311 675,-275 729,-275 729,-311"/>
<text text-anchor="middle" x="702" y="-286.82" font-family="Times,serif" font-size="14.00">Asset</text>
</g>
<!-- Threat&#45;&gt;Asset -->
<g id="edge20" class="edge">
<title>Threat&#45;&gt;Asset</title>
<path fill="none" stroke="black" d="M301.3,-479.81C368.19,-466.69 543.53,-426.02 663,-341.25 671.11,-335.5 678.49,-327.65 684.6,-320"/>
<polygon fill="black" stroke="black" points="690.42,-312.23 688.03,-322.93 688.15,-315.26 684.43,-320.23 684.43,-320.23 684.43,-320.23 688.15,-315.26 680.83,-317.54 690.42,-312.23"/>
<text text-anchor="middle" x="616.2" y="-393.32" font-family="Times,serif" font-size="14.00">involves</text>
</g>
<!-- ThreatCause&#45;&gt;CausalEntity -->
<g id="edge3" class="edge">
<title>ThreatCause&#45;&gt;CausalEntity</title>
<path fill="none" stroke="black" d="M159,-274.69C159,-245.28 159,-185.32 159,-149.68"/>
<polygon fill="black" stroke="black" points="159,-139.83 163.5,-149.83 159,-143.61 159,-149.83 159,-149.83 159,-149.83 159,-143.61 154.5,-149.83 159,-139.83"/>
<text text-anchor="middle" x="191.25" y="-200.32" font-family="Times,serif" font-size="14.00">sub&#45;class of</text>
</g>
<!-- ControlStrategy&#45;&gt;ThreatCause -->
<g id="edge5" class="edge">
<title>ControlStrategy&#45;&gt;ThreatCause</title>
<path fill="none" stroke="black" d="M226.72,-381.06C217.38,-376.28 208.13,-370.45 200.5,-363.5 187.75,-351.89 177.68,-335.44 170.66,-321.46"/>
<polygon fill="black" stroke="black" points="166.41,-312.47 174.76,-319.59 168.03,-315.89 170.69,-321.51 170.69,-321.51 170.69,-321.51 168.03,-315.89 166.62,-323.43 166.41,-312.47"/>
<text text-anchor="middle" x="232.75" y="-350.2" font-family="Times,serif" font-size="14.00">sub&#45;class of</text>
</g>
<!-- AssetControl -->
<g id="node7" class="node">
<title>AssetControl</title>
<polygon fill="none" stroke="black" points="308,-311 220,-311 220,-275 308,-275 308,-311"/>
<text text-anchor="middle" x="264" y="-286.82" font-family="Times,serif" font-size="14.00">Asset control</text>
</g>
<!-- ControlStrategy&#45;&gt;AssetControl -->
<g id="edge11" class="edge">
<title>ControlStrategy&#45;&gt;AssetControl</title>
<path fill="none" stroke="black" d="M272.35,-381.24C270.81,-365.21 268.5,-341.04 266.7,-322.2"/>
<polygon fill="black" stroke="black" points="265.77,-312.49 271.2,-322.02 266.13,-316.26 266.72,-322.45 266.72,-322.45 266.72,-322.45 266.13,-316.26 262.24,-322.88 265.77,-312.49"/>
<text text-anchor="middle" x="279.48" y="-350.2" font-family="Times,serif" font-size="14.00">has</text>
</g>
<!-- AssetProperty -->
<g id="node6" class="node">
<title>AssetProperty</title>
<polygon fill="none" stroke="black" points="429.75,-224.5 334.25,-224.5 334.25,-188.5 429.75,-188.5 429.75,-224.5"/>
<text text-anchor="middle" x="382" y="-200.32" font-family="Times,serif" font-size="14.00">Asset property</text>
</g>
<!-- AssetProperty&#45;&gt;CausalEntity -->
<g id="edge4" class="edge">
<title>AssetProperty&#45;&gt;CausalEntity</title>
<path fill="none" stroke="black" d="M335.79,-188.04C300.11,-174.56 250.65,-155.88 213.12,-141.7"/>
<polygon fill="black" stroke="black" points="204.01,-138.26 214.96,-137.58 207.55,-139.59 213.36,-141.79 213.36,-141.79 213.36,-141.79 207.55,-139.59 211.77,-146 204.01,-138.26"/>
<text text-anchor="middle" x="316.1" y="-157.2" font-family="Times,serif" font-size="14.00">sub&#45;class of</text>
</g>
<!-- AssetControl&#45;&gt;AssetProperty -->
<g id="edge6" class="edge">
<title>AssetControl&#45;&gt;AssetProperty</title>
<path fill="none" stroke="black" d="M278.88,-274.58C288.16,-264.41 300.72,-251.79 313.5,-242.5 319.52,-238.12 326.17,-233.99 332.89,-230.2"/>
<polygon fill="black" stroke="black" points="341.64,-225.49 334.97,-234.19 338.31,-227.28 332.83,-230.23 332.83,-230.23 332.83,-230.23 338.31,-227.28 330.7,-226.27 341.64,-225.49"/>
<text text-anchor="middle" x="345.75" y="-243.45" font-family="Times,serif" font-size="14.00">sub&#45;class of</text>
</g>
<!-- AssetTrustworthiness -->
<g id="node8" class="node">
<title>AssetTrustworthiness</title>
<polygon fill="none" stroke="black" points="651.12,-311 518.88,-311 518.88,-275 651.12,-275 651.12,-311"/>
<text text-anchor="middle" x="585" y="-286.82" font-family="Times,serif" font-size="14.00">Asset trustworthiness</text>
</g>
<!-- AssetTrustworthiness&#45;&gt;AssetProperty -->
<g id="edge7" class="edge">
<title>AssetTrustworthiness&#45;&gt;AssetProperty</title>
<path fill="none" stroke="black" d="M543.43,-274.7C511.79,-261.53 468.04,-243.31 434.07,-229.17"/>
<polygon fill="black" stroke="black" points="424.99,-225.39 435.95,-225.08 428.48,-226.85 434.22,-229.24 434.22,-229.24 434.22,-229.24 428.48,-226.85 432.49,-233.39 424.99,-225.39"/>
<text text-anchor="middle" x="527.9" y="-243.45" font-family="Times,serif" font-size="14.00">sub&#45;class of</text>
</g>
<!-- AssetBehaviour&#45;&gt;AssetProperty -->
<g id="edge8" class="edge">
<title>AssetBehaviour&#45;&gt;AssetProperty</title>
<path fill="none" stroke="black" d="M382,-274.49C382,-263.39 382,-248.76 382,-236.01"/>
<polygon fill="black" stroke="black" points="382,-226.2 386.5,-236.2 382,-229.99 382,-236.2 382,-236.2 382,-236.2 382,-229.99 377.5,-236.2 382,-226.2"/>
<text text-anchor="middle" x="414.25" y="-243.45" font-family="Times,serif" font-size="14.00">sub&#45;class of</text>
</g>
<!-- AssetBehaviour&#45;&gt;AssetTrustworthiness -->
<g id="edge1" class="edge">
<title>AssetBehaviour&#45;&gt;AssetTrustworthiness</title>
<path fill="none" stroke="black" d="M438.01,-293C459.49,-293 484.4,-293 507.54,-293"/>
<polygon fill="black" stroke="black" points="517.52,-293 507.52,-297.5 513.74,-293 507.52,-293 507.52,-293 507.52,-293 513.74,-293 507.52,-288.5 517.52,-293"/>
<text text-anchor="middle" x="478.25" y="-296.95" font-family="Times,serif" font-size="14.00">undermines</text>
<text text-anchor="middle" x="497.74" y="-279.7" font-family="Times,serif" font-size="14.00">card.=1</text>
</g>
<!-- StructuralEntity -->
<g id="node10" class="node">
<title>StructuralEntity</title>
<polygon fill="none" stroke="black" points="911.88,-224.5 808.12,-224.5 808.12,-188.5 911.88,-188.5 911.88,-224.5"/>
<text text-anchor="middle" x="860" y="-200.32" font-family="Times,serif" font-size="14.00">Structural entity</text>
</g>
<!-- Asset&#45;&gt;AssetProperty -->
<g id="edge19" class="edge">
<title>Asset&#45;&gt;AssetProperty</title>
<path fill="none" stroke="black" d="M674.87,-279.58C670.92,-277.89 666.87,-276.23 663,-274.75 619.78,-258.2 608.81,-254.06 564,-242.5 523.2,-231.98 476.52,-223.06 440.65,-216.86"/>
<polygon fill="black" stroke="black" points="431.08,-215.23 441.7,-212.47 434.81,-215.87 440.94,-216.91 440.94,-216.91 440.94,-216.91 434.81,-215.87 440.18,-221.35 431.08,-215.23"/>
<text text-anchor="middle" x="646.2" y="-243.45" font-family="Times,serif" font-size="14.00">has property</text>
</g>
<!-- Asset&#45;&gt;StructuralEntity -->
<g id="edge15" class="edge">
<title>Asset&#45;&gt;StructuralEntity</title>
<path fill="none" stroke="black" d="M729.29,-276.6C746.96,-266.71 770.49,-253.67 791.5,-242.5 799.21,-238.4 807.45,-234.11 815.45,-230"/>
<polygon fill="black" stroke="black" points="824.3,-225.46 817.45,-234.02 820.94,-227.18 815.4,-230.02 815.4,-230.02 815.4,-230.02 820.94,-227.18 813.35,-226.01 824.3,-225.46"/>
<text text-anchor="middle" x="823.75" y="-243.45" font-family="Times,serif" font-size="14.00">sub&#45;class of</text>
</g>
<!-- AssetRelation -->
<g id="node12" class="node">
<title>AssetRelation</title>
<polygon fill="none" stroke="black" points="916.75,-311 803.25,-311 803.25,-275 916.75,-275 916.75,-311"/>
<text text-anchor="middle" x="860" y="-286.82" font-family="Times,serif" font-size="14.00">Asset relationship</text>
</g>
<!-- AssetRelation&#45;&gt;StructuralEntity -->
<g id="edge16" class="edge">
<title>AssetRelation&#45;&gt;StructuralEntity</title>
<path fill="none" stroke="black" d="M860,-274.9C860,-263.75 860,-248.92 860,-236.02"/>
<polygon fill="black" stroke="black" points="860,-226.08 864.5,-236.08 860,-229.86 860,-236.08 860,-236.08 860,-236.08 860,-229.86 855.5,-236.08 860,-226.08"/>
<text text-anchor="middle" x="892.25" y="-243.45" font-family="Times,serif" font-size="14.00">sub&#45;class of</text>
</g>
<!-- AssetRelation&#45;&gt;Asset -->
<g id="edge17" class="edge">
<title>AssetRelation&#45;&gt;Asset</title>
<path fill="none" stroke="black" d="M802.79,-293C781.99,-293 759,-293 740.24,-293"/>
<polygon fill="black" stroke="black" points="730.38,-293 740.38,-288.5 734.16,-293 740.38,-293 740.38,-293 740.38,-293 734.16,-293 740.38,-297.5 730.38,-293"/>
<text text-anchor="middle" x="766.12" y="-296.95" font-family="Times,serif" font-size="14.00">links from</text>
</g>
<!-- AssetRelation&#45;&gt;Asset -->
<g id="edge18" class="edge">
<title>AssetRelation&#45;&gt;Asset</title>
<path fill="none" stroke="black" d="M802.97,-276.81C784.68,-273.64 764.38,-272.24 745.88,-275.75 743.91,-276.12 741.92,-276.58 739.93,-277.11"/>
<polygon fill="black" stroke="black" points="730.55,-280.06 738.73,-272.76 734.15,-278.93 740.08,-277.06 740.08,-277.06 740.08,-277.06 734.15,-278.93 741.44,-281.35 730.55,-280.06"/>
<text text-anchor="middle" x="766.12" y="-276.7" font-family="Times,serif" font-size="14.00">links to</text>
</g>
<!-- TargetSystem -->
<g id="node13" class="node">
<title>TargetSystem</title>
<polygon fill="none" stroke="black" points="1027.62,-311 934.38,-311 934.38,-275 1027.62,-275 1027.62,-311"/>
<text text-anchor="middle" x="981" y="-286.82" font-family="Times,serif" font-size="14.00">Target system</text>
</g>
<!-- TargetSystem&#45;&gt;StructuralEntity -->
<g id="edge14" class="edge">
<title>TargetSystem&#45;&gt;StructuralEntity</title>
<path fill="none" stroke="black" d="M965.23,-274.63C955.44,-264.47 942.23,-251.85 929,-242.5 922.66,-238.02 915.68,-233.79 908.65,-229.91"/>
<polygon fill="black" stroke="black" points="900.19,-225.42 911.13,-226.13 903.53,-227.19 909.02,-230.1 909.02,-230.1 909.02,-230.1 903.53,-227.19 906.92,-234.08 900.19,-225.42"/>
<text text-anchor="middle" x="980.41" y="-243.45" font-family="Times,serif" font-size="14.00">has structure</text>
</g>
</g>
</svg>
