<?xml version="1.0" encoding="UTF-8" standalone="no"?>
<!DOCTYPE svg PUBLIC "-//W3C//DTD SVG 1.1//EN"
 "http://www.w3.org/Graphics/SVG/1.1/DTD/svg11.dtd">
<!-- Generated by graphviz version 12.1.0 (20240811.2233)
 -->
<!-- Title: SemiFinal Pages: 1 -->
<svg width="1033pt" height="551pt"
 viewBox="0.00 0.00 1033.00 550.75" xmlns="http://www.w3.org/2000/svg" xmlns:xlink="http://www.w3.org/1999/xlink">
<g id="graph0" class="graph" transform="scale(1 1) rotate(0) translate(4 546.75)">
<title>SemiFinal</title>
<polygon fill="white" stroke="none" points="-4,4 -4,-546.75 1029,-546.75 1029,4 -4,4"/>
<g id="clust1" class="cluster">
<title>cluster0</title>
<polygon fill="none" stroke="black" points="8,-8 8,-534.5 656,-534.5 656,-8 8,-8"/>
<text text-anchor="start" x="285.88" y="-518.2" font-family="Times,serif" font-size="14.00"> </text>
<text text-anchor="start" x="289.62" y="-518.2" font-family="Times,serif" font-weight="bold" font-size="14.00">Causal entities</text>
<text text-anchor="start" x="374.38" y="-518.2" font-family="Times,serif" font-size="14.00"> </text>
</g>
<g id="clust4" class="cluster">
<title>cluster1</title>
<polygon fill="none" stroke="black" points="664,-180.5 664,-341 1017,-341 1017,-180.5 664,-180.5"/>
<text text-anchor="start" x="784.25" y="-324.7" font-family="Times,serif" font-size="14.00"> </text>
<text text-anchor="start" x="788" y="-324.7" font-family="Times,serif" font-weight="bold" font-size="14.00">Structural entities</text>
<text text-anchor="start" x="893" y="-324.7" font-family="Times,serif" font-size="14.00"> </text>
</g>
<g id="clust5" class="cluster">
<title>cluster2</title>
<polygon fill="none" stroke="black" points="697,-460 697,-534.75 984,-534.75 984,-460 697,-460"/>
<text text-anchor="start" x="770.75" y="-518.45" font-family="Times,serif" font-size="14.00"> </text>
<text text-anchor="start" x="774.5" y="-518.45" font-family="Times,serif" font-weight="bold" font-size="14.00">Organisational entities</text>
<text text-anchor="start" x="906.5" y="-518.45" font-family="Times,serif" font-size="14.00"> </text>
</g>
<!-- CausalEntity -->
<g id="node1" class="node">
<title>CausalEntity</title>
<polygon fill="none" stroke="black" points="202.62,-138.25 115.38,-138.25 115.38,-102.25 202.62,-102.25 202.62,-138.25"/>
<text text-anchor="middle" x="159" y="-114.08" font-family="Times,serif" font-size="14.00">Causal entity</text>
</g>
<!-- Likelihood -->
<g id="node2" class="node">
<title>Likelihood</title>
<polygon fill="none" stroke="black" points="196.62,-52 121.38,-52 121.38,-16 196.62,-16 196.62,-52"/>
<text text-anchor="middle" x="159" y="-27.82" font-family="Times,serif" font-size="14.00">Likelihood</text>
</g>
<!-- CausalEntity&#45;&gt;Likelihood -->
<g id="edge10" class="edge">
<title>CausalEntity&#45;&gt;Likelihood</title>
<path fill="none" stroke="black" d="M159,-101.79C159,-90.72 159,-76.14 159,-63.43"/>
<polygon fill="black" stroke="black" points="159,-53.65 163.5,-63.65 159,-57.43 159,-63.65 159,-63.65 159,-63.65 159,-57.43 154.5,-63.65 159,-53.65"/>
<text text-anchor="middle" x="168" y="-70.95" font-family="Times,serif" font-size="14.00">has</text>
</g>
<!-- Threat -->
<g id="node3" class="node">
<title>Threat</title>
<polygon fill="none" stroke="black" points="126,-504.25 72,-504.25 72,-468.25 126,-468.25 126,-504.25"/>
<text text-anchor="middle" x="99" y="-480.07" font-family="Times,serif" font-size="14.00">Threat</text>
</g>
<!-- Threat&#45;&gt;CausalEntity -->
<g id="edge3" class="edge">
<title>Threat&#45;&gt;CausalEntity</title>
<path fill="none" stroke="black" d="M74.8,-468C56.32,-452.63 34,-428.31 34,-400.5 34,-400.5 34,-400.5 34,-205.5 34,-169.09 70.91,-147.38 104.62,-135.13"/>
<polygon fill="black" stroke="black" points="113.78,-132.03 105.75,-139.5 110.2,-133.24 104.31,-135.24 104.31,-135.24 104.31,-135.24 110.2,-133.24 102.86,-130.98 113.78,-132.03"/>
<text text-anchor="middle" x="66.25" y="-286.57" font-family="Times,serif" font-size="14.00">sub&#45;class of</text>
</g>
<!-- ThreatCause -->
<g id="node4" class="node">
<title>ThreatCause</title>
<polygon fill="none" stroke="black" points="201.5,-310.75 116.5,-310.75 116.5,-274.75 201.5,-274.75 201.5,-310.75"/>
<text text-anchor="middle" x="159" y="-286.57" font-family="Times,serif" font-size="14.00">Threat cause</text>
</g>
<!-- Threat&#45;&gt;ThreatCause -->
<g id="edge11" class="edge">
<title>Threat&#45;&gt;ThreatCause</title>
<path fill="none" stroke="black" d="M95.02,-467.82C90.99,-446.75 86.57,-410.47 96,-381.25 103.58,-357.74 120.1,-335.21 134.31,-318.9"/>
<polygon fill="black" stroke="black" points="140.66,-311.87 137.3,-322.31 138.13,-314.68 133.96,-319.29 133.96,-319.29 133.96,-319.29 138.13,-314.68 130.62,-316.28 140.66,-311.87"/>
<text text-anchor="middle" x="123" y="-393.32" font-family="Times,serif" font-size="14.00">caused by</text>
</g>
<!-- ControlStrategy -->
<g id="node5" class="node">
<title>ControlStrategy</title>
<polygon fill="none" stroke="black" points="262.88,-417.5 159.12,-417.5 159.12,-381.5 262.88,-381.5 262.88,-417.5"/>
<text text-anchor="middle" x="211" y="-393.32" font-family="Times,serif" font-size="14.00">Control strategy</text>
</g>
<!-- Threat&#45;&gt;ControlStrategy -->
<g id="edge13" class="edge">
<title>Threat&#45;&gt;ControlStrategy</title>
<path fill="none" stroke="black" d="M121.94,-467.9C138.47,-455.38 160.99,-438.34 179.25,-424.52"/>
<polygon fill="black" stroke="black" points="187.12,-418.57 181.86,-428.19 184.11,-420.85 179.15,-424.6 179.15,-424.6 179.15,-424.6 184.11,-420.85 176.43,-421.01 187.12,-418.57"/>
<text text-anchor="middle" x="194.71" y="-436.7" font-family="Times,serif" font-size="14.00">triggered by</text>
<text text-anchor="middle" x="154.35" y="-418.78" font-family="Times,serif" font-size="14.00">card.= 0..n &#160;</text>
</g>
<!-- AssetBehaviour -->
<g id="node10" class="node">
<title>AssetBehaviour</title>
<polygon fill="none" stroke="black" points="392.62,-417.75 281.38,-417.75 281.38,-381.25 392.62,-381.25 392.62,-417.75"/>
<text text-anchor="middle" x="337" y="-400.45" font-family="Times,serif" font-size="14.00">Asset behaviour /</text>
<text text-anchor="middle" x="337" y="-386.2" font-family="Times,serif" font-size="14.00">threat effect</text>
</g>
<!-- Threat&#45;&gt;AssetBehaviour -->
<g id="edge14" class="edge">
<title>Threat&#45;&gt;AssetBehaviour</title>
<path fill="none" stroke="black" d="M126.45,-479.51C153.65,-473.46 196.32,-463.02 232,-450 252.77,-442.42 275.01,-432.25 293.66,-423.1"/>
<polygon fill="black" stroke="black" points="302.53,-418.69 295.58,-427.17 299.14,-420.37 293.57,-423.14 293.57,-423.14 293.57,-423.14 299.14,-420.37 291.57,-419.12 302.53,-418.69"/>
<text text-anchor="middle" x="285.1" y="-436.7" font-family="Times,serif" font-size="14.00">induces</text>
</g>
<!-- OrganisationalEntity -->
<g id="node16" class="node">
<title>OrganisationalEntity</title>
<polygon fill="none" stroke="black" points="842.75,-504.5 705.25,-504.5 705.25,-468 842.75,-468 842.75,-504.5"/>
<text text-anchor="middle" x="774" y="-487.2" font-family="Times,serif" font-size="14.00">Organisational entity /</text>
<text text-anchor="middle" x="774" y="-472.95" font-family="Times,serif" font-size="14.00">threat role</text>
</g>
<!-- Threat&#45;&gt;OrganisationalEntity -->
<g id="edge24" class="edge">
<title>Threat&#45;&gt;OrganisationalEntity</title>
<path fill="none" stroke="black" d="M126.3,-486.25C221.7,-486.25 542.65,-486.25 693.89,-486.25"/>
<polygon fill="black" stroke="black" points="703.7,-486.25 693.7,-490.75 699.92,-486.25 693.7,-486.25 693.7,-486.25 693.7,-486.25 699.92,-486.25 693.7,-481.75 703.7,-486.25"/>
<text text-anchor="middle" x="415.62" y="-490.2" font-family="Times,serif" font-size="14.00">organised with</text>
</g>
<!-- ThreatCause&#45;&gt;CausalEntity -->
<g id="edge4" class="edge">
<title>ThreatCause&#45;&gt;CausalEntity</title>
<path fill="none" stroke="black" d="M159,-274.46C159,-245.1 159,-185.22 159,-149.64"/>
<polygon fill="black" stroke="black" points="159,-139.8 163.5,-149.8 159,-143.58 159,-149.8 159,-149.8 159,-149.8 159,-143.58 154.5,-149.8 159,-139.8"/>
<text text-anchor="middle" x="191.25" y="-200.32" font-family="Times,serif" font-size="14.00">sub&#45;class of</text>
</g>
<!-- ControlStrategy&#45;&gt;ThreatCause -->
<g id="edge6" class="edge">
<title>ControlStrategy&#45;&gt;ThreatCause</title>
<path fill="none" stroke="black" d="M173.97,-381.17C167.36,-376.34 161.35,-370.4 157.5,-363.25 150.82,-350.84 150.54,-335.29 152.22,-322.05"/>
<polygon fill="black" stroke="black" points="153.88,-312.34 156.63,-322.95 153.24,-316.07 152.2,-322.2 152.2,-322.2 152.2,-322.2 153.24,-316.07 147.76,-321.44 153.88,-312.34"/>
<text text-anchor="middle" x="189.75" y="-349.95" font-family="Times,serif" font-size="14.00">sub&#45;class of</text>
</g>
<!-- Control -->
<g id="node7" class="node">
<title>Control</title>
<polygon fill="none" stroke="black" points="276.62,-310.75 219.38,-310.75 219.38,-274.75 276.62,-274.75 276.62,-310.75"/>
<text text-anchor="middle" x="248" y="-286.57" font-family="Times,serif" font-size="14.00">Control</text>
</g>
<!-- ControlStrategy&#45;&gt;Control -->
<g id="edge12" class="edge">
<title>ControlStrategy&#45;&gt;Control</title>
<path fill="none" stroke="black" d="M218.81,-381.06C221.23,-375.42 223.83,-369.11 226,-363.25 231.03,-349.66 235.96,-334.33 239.87,-321.53"/>
<polygon fill="black" stroke="black" points="242.68,-312.21 244.11,-323.08 241.59,-315.83 239.8,-321.79 239.8,-321.79 239.8,-321.79 241.59,-315.83 235.49,-320.49 242.68,-312.21"/>
<text text-anchor="middle" x="239.67" y="-349.95" font-family="Times,serif" font-size="14.00">has</text>
</g>
<!-- AssetProperty -->
<g id="node6" class="node">
<title>AssetProperty</title>
<polygon fill="none" stroke="black" points="563.75,-224.5 468.25,-224.5 468.25,-188.5 563.75,-188.5 563.75,-224.5"/>
<text text-anchor="middle" x="516" y="-200.32" font-family="Times,serif" font-size="14.00">Asset property</text>
</g>
<!-- AssetProperty&#45;&gt;CausalEntity -->
<g id="edge5" class="edge">
<title>AssetProperty&#45;&gt;CausalEntity</title>
<path fill="none" stroke="black" d="M467.85,-194.14C401.73,-178.53 283.14,-150.55 213.73,-134.17"/>
<polygon fill="black" stroke="black" points="204.21,-131.92 214.98,-129.84 207.89,-132.79 213.95,-134.22 213.95,-134.22 213.95,-134.22 207.89,-132.79 212.91,-138.6 204.21,-131.92"/>
<text text-anchor="middle" x="391.12" y="-157.2" font-family="Times,serif" font-size="14.00">sub&#45;class of</text>
</g>
<!-- Control&#45;&gt;AssetProperty -->
<g id="edge7" class="edge">
<title>Control&#45;&gt;AssetProperty</title>
<path fill="none" stroke="black" d="M277.11,-280.14C281.75,-278.32 286.5,-276.47 291,-274.75 329.72,-259.96 338.92,-254.8 378.5,-242.5 404.11,-234.54 432.81,-227.02 457.34,-221.01"/>
<polygon fill="black" stroke="black" points="466.75,-218.73 458.09,-225.46 463.07,-219.62 457.03,-221.08 457.03,-221.08 457.03,-221.08 463.07,-219.62 455.97,-216.71 466.75,-218.73"/>
<text text-anchor="middle" x="410.75" y="-243.45" font-family="Times,serif" font-size="14.00">sub&#45;class of</text>
</g>
<!-- AssetTrustworthiness -->
<g id="node8" class="node">
<title>AssetTrustworthiness</title>
<polygon fill="none" stroke="black" points="647.12,-417.5 514.88,-417.5 514.88,-381.5 647.12,-381.5 647.12,-417.5"/>
<text text-anchor="middle" x="581" y="-393.32" font-family="Times,serif" font-size="14.00">Asset trustworthiness</text>
</g>
<!-- AssetTrustworthiness&#45;&gt;AssetProperty -->
<g id="edge8" class="edge">
<title>AssetTrustworthiness&#45;&gt;AssetProperty</title>
<path fill="none" stroke="black" d="M579.36,-381.17C576.64,-356.76 570.03,-311.15 556,-274.75 550.58,-260.69 542.34,-246.19 534.75,-234.26"/>
<polygon fill="black" stroke="black" points="529.27,-225.94 538.53,-231.82 531.35,-229.1 534.77,-234.29 534.77,-234.29 534.77,-234.29 531.35,-229.1 531.01,-236.77 529.27,-225.94"/>
<text text-anchor="middle" x="605.77" y="-286.57" font-family="Times,serif" font-size="14.00">sub&#45;class of</text>
</g>
<!-- virtual -->
<!-- virtual&#45;&gt;AssetTrustworthiness -->
<g id="edge2" class="edge">
<title>virtual&#45;&gt;AssetTrustworthiness</title>
<path fill="none" stroke="black" d="M476,-399.5C485.14,-399.5 494.27,-399.5 503.41,-399.5"/>
<polygon fill="black" stroke="black" points="513.34,-399.5 503.34,-404 509.55,-399.5 503.34,-399.5 503.34,-399.5 503.34,-399.5 509.55,-399.5 503.34,-395 513.34,-399.5"/>
<text text-anchor="middle" x="484.18" y="-386.2" font-family="Times,serif" font-size="14.00"> &#160;&#160;&#160;card.= 1</text>
</g>
<!-- BehaviourAttribute -->
<g id="node11" class="node">
<title>BehaviourAttribute</title>
<ellipse fill="none" stroke="black" cx="471" cy="-292.75" rx="75.53" ry="18"/>
<text text-anchor="middle" x="471" y="-286.57" font-family="Times,serif" font-size="14.00">behaviour attribute</text>
</g>
<!-- virtual&#45;&gt;BehaviourAttribute -->
<g id="edge15" class="edge">
<title>virtual&#45;&gt;BehaviourAttribute</title>
<path fill="none" stroke="black" d="M476,-398.5C476,-398.5 473.83,-353.13 472.35,-322.11"/>
<polygon fill="black" stroke="black" points="471.88,-312.26 476.86,-322.04 472.06,-316.04 472.36,-322.25 472.36,-322.25 472.36,-322.25 472.06,-316.04 467.87,-322.47 471.88,-312.26"/>
<text text-anchor="middle" x="482.49" y="-349.95" font-family="Times,serif" font-size="14.00">via</text>
<text text-anchor="middle" x="445.2" y="-312" font-family="Times,serif" font-size="14.00"> &#160;card.= 1</text>
</g>
<!-- AssetBehaviour&#45;&gt;AssetProperty -->
<g id="edge9" class="edge">
<title>AssetBehaviour&#45;&gt;AssetProperty</title>
<path fill="none" stroke="black" d="M327.41,-380.94C314.45,-354.55 295.76,-304.59 321.5,-274.75 339.33,-254.08 417.56,-266.63 443,-256.75 458.6,-250.7 474.2,-240.82 486.95,-231.49"/>
<polygon fill="black" stroke="black" points="494.72,-225.6 489.48,-235.22 491.71,-227.88 486.76,-231.64 486.76,-231.64 486.76,-231.64 491.71,-227.88 484.04,-228.05 494.72,-225.6"/>
<text text-anchor="middle" x="353.75" y="-286.57" font-family="Times,serif" font-size="14.00">sub&#45;class of</text>
</g>
<!-- AssetBehaviour&#45;&gt;virtual -->
<g id="edge1" class="edge">
<title>AssetBehaviour&#45;&gt;virtual</title>
<path fill="none" stroke="black" d="M392.74,-399.5C431.41,-399.5 476,-399.5 476,-399.5"/>
<text text-anchor="middle" x="433.41" y="-403.45" font-family="Times,serif" font-size="14.00">undermines</text>
</g>
<!-- StructuralEntity -->
<g id="node12" class="node">
<title>StructuralEntity</title>
<polygon fill="none" stroke="black" points="892.88,-224.5 789.12,-224.5 789.12,-188.5 892.88,-188.5 892.88,-224.5"/>
<text text-anchor="middle" x="841" y="-200.32" font-family="Times,serif" font-size="14.00">Structural entity</text>
</g>
<!-- Asset -->
<g id="node13" class="node">
<title>Asset</title>
<polygon fill="none" stroke="black" points="726,-310.75 672,-310.75 672,-274.75 726,-274.75 726,-310.75"/>
<text text-anchor="middle" x="699" y="-286.57" font-family="Times,serif" font-size="14.00">Asset</text>
</g>
<!-- Asset&#45;&gt;AssetProperty -->
<g id="edge21" class="edge">
<title>Asset&#45;&gt;AssetProperty</title>
<path fill="none" stroke="black" d="M671.6,-279.14C643.11,-266.02 597.94,-245.22 563.6,-229.41"/>
<polygon fill="black" stroke="black" points="554.87,-225.4 565.84,-225.49 558.31,-226.98 563.96,-229.58 563.96,-229.58 563.96,-229.58 558.31,-226.98 562.08,-233.67 554.87,-225.4"/>
<text text-anchor="middle" x="652.21" y="-243.45" font-family="Times,serif" font-size="14.00">has property</text>
</g>
<!-- Asset&#45;&gt;StructuralEntity -->
<g id="edge17" class="edge">
<title>Asset&#45;&gt;StructuralEntity</title>
<path fill="none" stroke="black" d="M723.37,-274.37C737.46,-264.58 755.68,-252.38 772.5,-242.5 779.7,-238.27 787.48,-234.01 795.12,-230"/>
<polygon fill="black" stroke="black" points="803.93,-225.44 797.12,-234.03 800.57,-227.18 795.05,-230.03 795.05,-230.03 795.05,-230.03 800.57,-227.18 792.98,-226.03 803.93,-225.44"/>
<text text-anchor="middle" x="804.75" y="-243.45" font-family="Times,serif" font-size="14.00">sub&#45;class of</text>
</g>
<!-- AssetRelation -->
<g id="node14" class="node">
<title>AssetRelation</title>
<polygon fill="none" stroke="black" points="897.75,-310.75 784.25,-310.75 784.25,-274.75 897.75,-274.75 897.75,-310.75"/>
<text text-anchor="middle" x="841" y="-286.57" font-family="Times,serif" font-size="14.00">Asset relationship</text>
</g>
<!-- AssetRelation&#45;&gt;StructuralEntity -->
<g id="edge18" class="edge">
<title>AssetRelation&#45;&gt;StructuralEntity</title>
<path fill="none" stroke="black" d="M841,-274.29C841,-263.22 841,-248.64 841,-235.93"/>
<polygon fill="black" stroke="black" points="841,-226.15 845.5,-236.15 841,-229.93 841,-236.15 841,-236.15 841,-236.15 841,-229.93 836.5,-236.15 841,-226.15"/>
<text text-anchor="middle" x="873.25" y="-243.45" font-family="Times,serif" font-size="14.00">sub&#45;class of</text>
</g>
<!-- AssetRelation&#45;&gt;Asset -->
<g id="edge19" class="edge">
<title>AssetRelation&#45;&gt;Asset</title>
<path fill="none" stroke="black" d="M784.02,-292.75C768.34,-292.75 751.7,-292.75 737.34,-292.75"/>
<polygon fill="black" stroke="black" points="727.6,-292.75 737.6,-288.25 731.38,-292.75 737.6,-292.75 737.6,-292.75 737.6,-292.75 731.38,-292.75 737.6,-297.25 727.6,-292.75"/>
<text text-anchor="middle" x="755.12" y="-296.7" font-family="Times,serif" font-size="14.00">domain</text>
</g>
<!-- AssetRelation&#45;&gt;Asset -->
<g id="edge20" class="edge">
<title>AssetRelation&#45;&gt;Asset</title>
<path fill="none" stroke="black" d="M783.81,-275.61C769.51,-273.35 754.23,-272.66 740.12,-275.5 738.99,-275.73 737.84,-275.99 736.69,-276.28"/>
<polygon fill="black" stroke="black" points="727.56,-279.15 735.75,-271.86 731.17,-278.01 737.1,-276.15 737.1,-276.15 737.1,-276.15 731.17,-278.01 738.45,-280.44 727.56,-279.15"/>
<text text-anchor="middle" x="755.12" y="-276.45" font-family="Times,serif" font-size="14.00">range</text>
</g>
<!-- TargetSystem -->
<g id="node15" class="node">
<title>TargetSystem</title>
<polygon fill="none" stroke="black" points="1008.62,-310.75 915.38,-310.75 915.38,-274.75 1008.62,-274.75 1008.62,-310.75"/>
<text text-anchor="middle" x="962" y="-286.57" font-family="Times,serif" font-size="14.00">Target system</text>
</g>
<!-- TargetSystem&#45;&gt;StructuralEntity -->
<g id="edge16" class="edge">
<title>TargetSystem&#45;&gt;StructuralEntity</title>
<path fill="none" stroke="black" d="M946.21,-274.47C936.42,-264.37 923.21,-251.81 910,-242.5 903.66,-238.03 896.67,-233.8 889.64,-229.92"/>
<polygon fill="black" stroke="black" points="881.17,-225.44 892.12,-226.14 884.52,-227.21 890.01,-230.12 890.01,-230.12 890.01,-230.12 884.52,-227.21 887.91,-234.09 881.17,-225.44"/>
<text text-anchor="middle" x="961.39" y="-243.45" font-family="Times,serif" font-size="14.00">has structure</text>
</g>
<!-- OrganisationalEntity&#45;&gt;Asset -->
<g id="edge23" class="edge">
<title>OrganisationalEntity&#45;&gt;Asset</title>
<path fill="none" stroke="black" d="M767.08,-467.58C753.99,-434.15 725.5,-361.42 709.85,-321.45"/>
<polygon fill="black" stroke="black" points="706.24,-312.24 714.08,-319.91 707.62,-315.76 709.89,-321.55 709.89,-321.55 709.89,-321.55 707.62,-315.76 705.7,-323.19 706.24,-312.24"/>
<text text-anchor="middle" x="778.64" y="-400.45" font-family="Times,serif" font-size="14.00">further</text>
<text text-anchor="middle" x="778.64" y="-386.2" font-family="Times,serif" font-size="14.00">restricted to</text>
</g>
<!-- RoleAttribute -->
<g id="node17" class="node">
<title>RoleAttribute</title>
<polygon fill="none" stroke="black" points="976,-504.25 922,-504.25 922,-468.25 976,-468.25 976,-504.25"/>
<text text-anchor="middle" x="949" y="-480.07" font-family="Times,serif" font-size="14.00">Role</text>
</g>
<!-- OrganisationalEntity&#45;&gt;RoleAttribute -->
<g id="edge22" class="edge">
<title>OrganisationalEntity&#45;&gt;RoleAttribute</title>
<path fill="none" stroke="black" d="M843.16,-486.25C866.17,-486.25 890.94,-486.25 910.73,-486.25"/>
<polygon fill="black" stroke="black" points="920.53,-486.25 910.53,-490.75 916.75,-486.25 910.53,-486.25 910.53,-486.25 910.53,-486.25 916.75,-486.25 910.53,-481.75 920.53,-486.25"/>
<text text-anchor="middle" x="882.38" y="-504.45" font-family="Times,serif" font-size="14.00">primarily</text>
<text text-anchor="middle" x="882.38" y="-490.2" font-family="Times,serif" font-size="14.00">working on</text>
</g>
</g>
</svg>
