<?xml version="1.0" encoding="UTF-8" standalone="no"?>
<!DOCTYPE svg PUBLIC "-//W3C//DTD SVG 1.1//EN"
 "http://www.w3.org/Graphics/SVG/1.1/DTD/svg11.dtd">
<!-- Generated by graphviz version 12.1.0 (20240811.2233)
 -->
<!-- Title: SemiFinal Pages: 1 -->
<svg width="1000pt" height="550pt"
 viewBox="0.00 0.00 1000.00 550.25" xmlns="http://www.w3.org/2000/svg" xmlns:xlink="http://www.w3.org/1999/xlink">
<g id="graph0" class="graph" transform="scale(1 1) rotate(0) translate(4 546.25)">
<title>SemiFinal</title>
<polygon fill="white" stroke="none" points="-4,4 -4,-546.25 996,-546.25 996,4 -4,4"/>
<g id="clust1" class="cluster">
<title>cluster0</title>
<polygon fill="none" stroke="black" points="8,-8 8,-534 656,-534 656,-8 8,-8"/>
<text text-anchor="start" x="285.88" y="-517.7" font-family="Times,serif" font-size="14.00"> </text>
<text text-anchor="start" x="289.62" y="-517.7" font-family="Times,serif" font-weight="bold" font-size="14.00">Causal entities</text>
<text text-anchor="start" x="374.38" y="-517.7" font-family="Times,serif" font-size="14.00"> </text>
</g>
<g id="clust4" class="cluster">
<title>cluster1</title>
<polygon fill="none" stroke="black" points="664,-180.5 664,-341 906,-341 906,-180.5 664,-180.5"/>
<text text-anchor="start" x="728.75" y="-324.7" font-family="Times,serif" font-size="14.00"> </text>
<text text-anchor="start" x="732.5" y="-324.7" font-family="Times,serif" font-weight="bold" font-size="14.00">Structural entities</text>
<text text-anchor="start" x="837.5" y="-324.7" font-family="Times,serif" font-size="14.00"> </text>
</g>
<g id="clust5" class="cluster">
<title>cluster2</title>
<polygon fill="none" stroke="black" points="664,-459.5 664,-534.25 984,-534.25 984,-459.5 664,-459.5"/>
<text text-anchor="start" x="754.25" y="-517.95" font-family="Times,serif" font-size="14.00"> </text>
<text text-anchor="start" x="758" y="-517.95" font-family="Times,serif" font-weight="bold" font-size="14.00">Organisational entities</text>
<text text-anchor="start" x="890" y="-517.95" font-family="Times,serif" font-size="14.00"> </text>
</g>
<!-- CausalEntity -->
<g id="node1" class="node">
<title>CausalEntity</title>
<polygon fill="none" stroke="black" points="202.62,-138.25 115.38,-138.25 115.38,-102.25 202.62,-102.25 202.62,-138.25"/>
<text text-anchor="middle" x="159" y="-114.08" font-family="Times,serif" font-size="14.00">Causal entity</text>
</g>
<!-- Likelihood -->
<g id="node2" class="node">
<title>Likelihood</title>
<polygon fill="none" stroke="black" points="196.62,-52 121.38,-52 121.38,-16 196.62,-16 196.62,-52"/>
<text text-anchor="middle" x="159" y="-27.82" font-family="Times,serif" font-size="14.00">Likelihood</text>
</g>
<!-- CausalEntity&#45;&gt;Likelihood -->
<g id="edge10" class="edge">
<title>CausalEntity&#45;&gt;Likelihood</title>
<path fill="none" stroke="black" d="M159,-101.79C159,-90.84 159,-76.44 159,-63.82"/>
<polygon fill="black" stroke="black" points="162.5,-63.95 159,-53.95 155.5,-63.95 162.5,-63.95"/>
<text text-anchor="middle" x="168" y="-70.95" font-family="Times,serif" font-size="14.00">has</text>
</g>
<!-- Threat -->
<g id="node3" class="node">
<title>Threat</title>
<polygon fill="none" stroke="black" points="134,-503.75 80,-503.75 80,-467.75 134,-467.75 134,-503.75"/>
<text text-anchor="middle" x="107" y="-479.57" font-family="Times,serif" font-size="14.00">Threat</text>
</g>
<!-- Threat&#45;&gt;CausalEntity -->
<g id="edge3" class="edge">
<title>Threat&#45;&gt;CausalEntity</title>
<path fill="none" stroke="black" d="M79.82,-468.24C59.06,-453.34 34,-429.33 34,-400.25 34,-400.25 34,-400.25 34,-205.5 34,-169.25 70.59,-147.56 104.18,-135.29"/>
<polygon fill="black" stroke="black" points="105.16,-138.66 113.5,-132.12 102.9,-132.03 105.16,-138.66"/>
<text text-anchor="middle" x="66.25" y="-286.57" font-family="Times,serif" font-size="14.00">sub&#45;class of</text>
</g>
<!-- ThreatCause -->
<g id="node4" class="node">
<title>ThreatCause</title>
<polygon fill="none" stroke="black" points="201.5,-310.75 116.5,-310.75 116.5,-274.75 201.5,-274.75 201.5,-310.75"/>
<text text-anchor="middle" x="159" y="-286.57" font-family="Times,serif" font-size="14.00">Threat cause</text>
</g>
<!-- Threat&#45;&gt;ThreatCause -->
<g id="edge11" class="edge">
<title>Threat&#45;&gt;ThreatCause</title>
<path fill="none" stroke="black" d="M103.35,-467.5C99.64,-446.62 95.54,-410.61 104,-381.25 110.48,-358.77 124.63,-336.48 136.95,-320.03"/>
<polygon fill="black" stroke="black" points="139.62,-322.3 143,-312.26 134.1,-318 139.62,-322.3"/>
<text text-anchor="middle" x="131" y="-393.07" font-family="Times,serif" font-size="14.00">caused by</text>
</g>
<!-- ControlStrategy -->
<g id="node5" class="node">
<title>ControlStrategy</title>
<polygon fill="none" stroke="black" points="270.88,-417.25 167.12,-417.25 167.12,-381.25 270.88,-381.25 270.88,-417.25"/>
<text text-anchor="middle" x="219" y="-393.07" font-family="Times,serif" font-size="14.00">Control strategy</text>
</g>
<!-- Threat&#45;&gt;ControlStrategy -->
<g id="edge13" class="edge">
<title>Threat&#45;&gt;ControlStrategy</title>
<path fill="none" stroke="black" d="M129.94,-467.45C146.39,-455.03 168.79,-438.13 187,-424.39"/>
<polygon fill="black" stroke="black" points="189.01,-427.26 194.89,-418.44 184.8,-421.67 189.01,-427.26"/>
<text text-anchor="middle" x="202.71" y="-436.2" font-family="Times,serif" font-size="14.00">triggered by</text>
<text text-anchor="middle" x="158.6" y="-418.48" font-family="Times,serif" font-size="14.00"> &#160;&#160;&#160;card = 0..n</text>
</g>
<!-- AssetBehaviour -->
<g id="node10" class="node">
<title>AssetBehaviour</title>
<polygon fill="none" stroke="black" points="392.88,-417.25 289.12,-417.25 289.12,-381.25 392.88,-381.25 392.88,-417.25"/>
<text text-anchor="middle" x="341" y="-393.07" font-family="Times,serif" font-size="14.00">Asset behaviour</text>
</g>
<!-- Threat&#45;&gt;AssetBehaviour -->
<g id="edge14" class="edge">
<title>Threat&#45;&gt;AssetBehaviour</title>
<path fill="none" stroke="black" d="M134.48,-479.11C161.72,-473.14 204.41,-462.75 240,-449.5 260.02,-442.05 281.39,-431.96 299.3,-422.85"/>
<polygon fill="black" stroke="black" points="300.78,-426.03 308.06,-418.33 297.57,-419.81 300.78,-426.03"/>
<text text-anchor="middle" x="291.93" y="-436.2" font-family="Times,serif" font-size="14.00">induces</text>
</g>
<!-- OrganisationalEntity -->
<g id="node15" class="node">
<title>OrganisationalEntity</title>
<polygon fill="none" stroke="black" points="805.88,-504 672.12,-504 672.12,-467.5 805.88,-467.5 805.88,-504"/>
<text text-anchor="middle" x="739" y="-486.7" font-family="Times,serif" font-size="14.00">Organisational entity/</text>
<text text-anchor="middle" x="739" y="-472.45" font-family="Times,serif" font-size="14.00">threat role</text>
</g>
<!-- Threat&#45;&gt;OrganisationalEntity -->
<g id="edge23" class="edge">
<title>Threat&#45;&gt;OrganisationalEntity</title>
<path fill="none" stroke="black" d="M134.16,-485.75C224.68,-485.75 518.4,-485.75 660.53,-485.75"/>
<polygon fill="black" stroke="black" points="660.23,-489.25 670.23,-485.75 660.23,-482.25 660.23,-489.25"/>
<text text-anchor="middle" x="403.06" y="-489.7" font-family="Times,serif" font-size="14.00">organised with</text>
</g>
<!-- ThreatCause&#45;&gt;CausalEntity -->
<g id="edge4" class="edge">
<title>ThreatCause&#45;&gt;CausalEntity</title>
<path fill="none" stroke="black" d="M159,-274.46C159,-245.1 159,-185.22 159,-149.64"/>
<polygon fill="black" stroke="black" points="162.5,-150.1 159,-140.1 155.5,-150.1 162.5,-150.1"/>
<text text-anchor="middle" x="191.25" y="-200.32" font-family="Times,serif" font-size="14.00">sub&#45;class of</text>
</g>
<!-- ControlStrategy&#45;&gt;ThreatCause -->
<g id="edge6" class="edge">
<title>ControlStrategy&#45;&gt;ThreatCause</title>
<path fill="none" stroke="black" d="M177.53,-380.81C170.75,-376.11 164.6,-370.31 160.5,-363.25 153.44,-351.11 152.49,-335.64 153.55,-322.39"/>
<polygon fill="black" stroke="black" points="157.02,-322.85 154.79,-312.49 150.08,-321.98 157.02,-322.85"/>
<text text-anchor="middle" x="192.75" y="-349.95" font-family="Times,serif" font-size="14.00">sub&#45;class of</text>
</g>
<!-- Control -->
<g id="node7" class="node">
<title>Control</title>
<polygon fill="none" stroke="black" points="276.62,-310.75 219.38,-310.75 219.38,-274.75 276.62,-274.75 276.62,-310.75"/>
<text text-anchor="middle" x="248" y="-286.57" font-family="Times,serif" font-size="14.00">Control</text>
</g>
<!-- ControlStrategy&#45;&gt;Control -->
<g id="edge12" class="edge">
<title>ControlStrategy&#45;&gt;Control</title>
<path fill="none" stroke="black" d="M223.79,-380.99C228.24,-364.96 234.95,-340.79 240.17,-321.95"/>
<polygon fill="black" stroke="black" points="243.5,-323.06 242.8,-312.49 236.75,-321.19 243.5,-323.06"/>
<text text-anchor="middle" x="241.63" y="-349.95" font-family="Times,serif" font-size="14.00">has</text>
</g>
<!-- AssetProperty -->
<g id="node6" class="node">
<title>AssetProperty</title>
<polygon fill="none" stroke="black" points="563.75,-224.5 468.25,-224.5 468.25,-188.5 563.75,-188.5 563.75,-224.5"/>
<text text-anchor="middle" x="516" y="-200.32" font-family="Times,serif" font-size="14.00">Asset property</text>
</g>
<!-- AssetProperty&#45;&gt;CausalEntity -->
<g id="edge5" class="edge">
<title>AssetProperty&#45;&gt;CausalEntity</title>
<path fill="none" stroke="black" d="M467.85,-194.14C401.87,-178.57 283.63,-150.66 214.16,-134.27"/>
<polygon fill="black" stroke="black" points="215.04,-130.88 204.5,-131.99 213.43,-137.69 215.04,-130.88"/>
<text text-anchor="middle" x="391.12" y="-157.2" font-family="Times,serif" font-size="14.00">sub&#45;class of</text>
</g>
<!-- Control&#45;&gt;AssetProperty -->
<g id="edge7" class="edge">
<title>Control&#45;&gt;AssetProperty</title>
<path fill="none" stroke="black" d="M277.11,-280.14C281.75,-278.32 286.5,-276.47 291,-274.75 329.72,-259.96 338.92,-254.8 378.5,-242.5 404,-234.58 432.56,-227.09 457.01,-221.09"/>
<polygon fill="black" stroke="black" points="457.57,-224.56 466.46,-218.8 455.92,-217.75 457.57,-224.56"/>
<text text-anchor="middle" x="410.75" y="-243.45" font-family="Times,serif" font-size="14.00">sub&#45;class of</text>
</g>
<!-- AssetTrustworthiness -->
<g id="node8" class="node">
<title>AssetTrustworthiness</title>
<polygon fill="none" stroke="black" points="647.12,-417.25 514.88,-417.25 514.88,-381.25 647.12,-381.25 647.12,-417.25"/>
<text text-anchor="middle" x="581" y="-393.07" font-family="Times,serif" font-size="14.00">Asset trustworthiness</text>
</g>
<!-- AssetTrustworthiness&#45;&gt;AssetProperty -->
<g id="edge8" class="edge">
<title>AssetTrustworthiness&#45;&gt;AssetProperty</title>
<path fill="none" stroke="black" d="M579.35,-380.96C576.63,-356.6 570.01,-311.08 556,-274.75 550.58,-260.69 542.34,-246.19 534.75,-234.26"/>
<polygon fill="black" stroke="black" points="537.86,-232.62 529.43,-226.19 532.01,-236.46 537.86,-232.62"/>
<text text-anchor="middle" x="605.76" y="-286.57" font-family="Times,serif" font-size="14.00">sub&#45;class of</text>
</g>
<!-- virtual -->
<!-- virtual&#45;&gt;AssetTrustworthiness -->
<g id="edge2" class="edge">
<title>virtual&#45;&gt;AssetTrustworthiness</title>
<path fill="none" stroke="black" d="M476,-399.25C485.04,-399.25 494.07,-399.25 503.11,-399.25"/>
<polygon fill="black" stroke="black" points="503.04,-402.75 513.04,-399.25 503.04,-395.75 503.04,-402.75"/>
<text text-anchor="middle" x="484.18" y="-385.95" font-family="Times,serif" font-size="14.00"> &#160;&#160;&#160;card = 1</text>
</g>
<!-- BehaviourAttribute -->
<g id="node11" class="node">
<title>BehaviourAttribute</title>
<ellipse fill="none" stroke="black" cx="471" cy="-292.75" rx="75.53" ry="18"/>
<text text-anchor="middle" x="471" y="-286.57" font-family="Times,serif" font-size="14.00">behaviour attribute</text>
</g>
<!-- virtual&#45;&gt;BehaviourAttribute -->
<g id="edge15" class="edge">
<title>virtual&#45;&gt;BehaviourAttribute</title>
<path fill="none" stroke="black" d="M476,-398.25C476,-398.25 473.85,-353.39 472.37,-322.45"/>
<polygon fill="black" stroke="black" points="475.87,-322.34 471.9,-312.52 468.88,-322.67 475.87,-322.34"/>
<text text-anchor="middle" x="482.49" y="-349.95" font-family="Times,serif" font-size="14.00">via</text>
<text text-anchor="middle" x="445.2" y="-311.96" font-family="Times,serif" font-size="14.00"> &#160;card = 1</text>
</g>
<!-- AssetBehaviour&#45;&gt;AssetProperty -->
<g id="edge9" class="edge">
<title>AssetBehaviour&#45;&gt;AssetProperty</title>
<path fill="none" stroke="black" d="M330.58,-380.76C316.44,-354.46 295.69,-304.66 321.5,-274.75 339.33,-254.08 417.56,-266.63 443,-256.75 458.45,-250.75 473.9,-241.01 486.58,-231.76"/>
<polygon fill="black" stroke="black" points="488.63,-234.6 494.49,-225.77 484.4,-229.02 488.63,-234.6"/>
<text text-anchor="middle" x="353.75" y="-286.57" font-family="Times,serif" font-size="14.00">sub&#45;class of</text>
</g>
<!-- AssetBehaviour&#45;&gt;virtual -->
<g id="edge1" class="edge">
<title>AssetBehaviour&#45;&gt;virtual</title>
<path fill="none" stroke="black" d="M393.19,-399.25C431.18,-399.25 476,-399.25 476,-399.25"/>
<text text-anchor="middle" x="433.54" y="-403.2" font-family="Times,serif" font-size="14.00">undermines</text>
</g>
<!-- StructuralEntity -->
<g id="node12" class="node">
<title>StructuralEntity</title>
<polygon fill="none" stroke="black" points="818.88,-224.5 715.12,-224.5 715.12,-188.5 818.88,-188.5 818.88,-224.5"/>
<text text-anchor="middle" x="767" y="-200.32" font-family="Times,serif" font-size="14.00">Structural entity</text>
</g>
<!-- Asset -->
<g id="node13" class="node">
<title>Asset</title>
<polygon fill="none" stroke="black" points="726,-310.75 672,-310.75 672,-274.75 726,-274.75 726,-310.75"/>
<text text-anchor="middle" x="699" y="-286.57" font-family="Times,serif" font-size="14.00">Asset</text>
</g>
<!-- Asset&#45;&gt;AssetProperty -->
<g id="edge20" class="edge">
<title>Asset&#45;&gt;AssetProperty</title>
<path fill="none" stroke="black" d="M671.6,-279.14C643.23,-266.07 598.33,-245.4 564.04,-229.62"/>
<polygon fill="black" stroke="black" points="565.69,-226.52 555.14,-225.52 562.76,-232.88 565.69,-226.52"/>
<text text-anchor="middle" x="652.21" y="-243.45" font-family="Times,serif" font-size="14.00">has property</text>
</g>
<!-- Asset&#45;&gt;StructuralEntity -->
<g id="edge16" class="edge">
<title>Asset&#45;&gt;StructuralEntity</title>
<path fill="none" stroke="black" d="M710.65,-274.49C717.35,-264.86 726.08,-252.77 734.5,-242.5 736.99,-239.46 739.68,-236.34 742.4,-233.28"/>
<polygon fill="black" stroke="black" points="744.85,-235.79 749.01,-226.04 739.68,-231.07 744.85,-235.79"/>
<text text-anchor="middle" x="766.75" y="-243.45" font-family="Times,serif" font-size="14.00">sub&#45;class of</text>
</g>
<!-- AssetRelation -->
<g id="node14" class="node">
<title>AssetRelation</title>
<polygon fill="none" stroke="black" points="897.75,-310.75 784.25,-310.75 784.25,-274.75 897.75,-274.75 897.75,-310.75"/>
<text text-anchor="middle" x="841" y="-286.57" font-family="Times,serif" font-size="14.00">Asset relationship</text>
</g>
<!-- AssetRelation&#45;&gt;StructuralEntity -->
<g id="edge17" class="edge">
<title>AssetRelation&#45;&gt;StructuralEntity</title>
<path fill="none" stroke="black" d="M826.37,-274.3C818.37,-264.83 808.22,-252.94 799,-242.5 796.36,-239.51 793.57,-236.4 790.79,-233.31"/>
<polygon fill="black" stroke="black" points="793.41,-231 784.09,-225.96 788.23,-235.71 793.41,-231"/>
<text text-anchor="middle" x="842.93" y="-243.45" font-family="Times,serif" font-size="14.00">sub&#45;class of</text>
</g>
<!-- AssetRelation&#45;&gt;Asset -->
<g id="edge18" class="edge">
<title>AssetRelation&#45;&gt;Asset</title>
<path fill="none" stroke="black" d="M784.02,-292.75C768.49,-292.75 752.03,-292.75 737.77,-292.75"/>
<polygon fill="black" stroke="black" points="737.89,-289.25 727.89,-292.75 737.89,-296.25 737.89,-289.25"/>
<text text-anchor="middle" x="755.12" y="-296.7" font-family="Times,serif" font-size="14.00">domain</text>
</g>
<!-- AssetRelation&#45;&gt;Asset -->
<g id="edge19" class="edge">
<title>AssetRelation&#45;&gt;Asset</title>
<path fill="none" stroke="black" d="M783.81,-275.61C769.51,-273.35 754.23,-272.66 740.12,-275.5 739.13,-275.7 738.13,-275.93 737.12,-276.17"/>
<polygon fill="black" stroke="black" points="736.35,-272.75 727.84,-279.06 738.43,-279.43 736.35,-272.75"/>
<text text-anchor="middle" x="755.12" y="-276.45" font-family="Times,serif" font-size="14.00">range</text>
</g>
<!-- OrganisationalEntity&#45;&gt;Asset -->
<g id="edge22" class="edge">
<title>OrganisationalEntity&#45;&gt;Asset</title>
<path fill="none" stroke="black" d="M735.31,-467.12C728.37,-433.99 713.33,-362.18 704.95,-322.15"/>
<polygon fill="black" stroke="black" points="708.41,-321.61 702.93,-312.54 701.56,-323.04 708.41,-321.61"/>
<text text-anchor="middle" x="756.53" y="-400.2" font-family="Times,serif" font-size="14.00">further</text>
<text text-anchor="middle" x="756.53" y="-385.95" font-family="Times,serif" font-size="14.00">restricted to</text>
</g>
<!-- RoleAttribute -->
<g id="node16" class="node">
<title>RoleAttribute</title>
<polygon fill="none" stroke="black" points="976.12,-503.75 885.88,-503.75 885.88,-467.75 976.12,-467.75 976.12,-503.75"/>
<text text-anchor="middle" x="931" y="-479.57" font-family="Times,serif" font-size="14.00">Role attribute</text>
</g>
<!-- OrganisationalEntity&#45;&gt;RoleAttribute -->
<g id="edge21" class="edge">
<title>OrganisationalEntity&#45;&gt;RoleAttribute</title>
<path fill="none" stroke="black" d="M806.15,-485.75C828.32,-485.75 852.76,-485.75 874.09,-485.75"/>
<polygon fill="black" stroke="black" points="874.07,-489.25 884.07,-485.75 874.07,-482.25 874.07,-489.25"/>
<text text-anchor="middle" x="845.88" y="-503.95" font-family="Times,serif" font-size="14.00">primarily</text>
<text text-anchor="middle" x="845.88" y="-489.7" font-family="Times,serif" font-size="14.00">working on</text>
</g>
</g>
</svg>
