<?xml version="1.0" encoding="UTF-8" standalone="no"?>
<!DOCTYPE svg PUBLIC "-//W3C//DTD SVG 1.1//EN"
 "http://www.w3.org/Graphics/SVG/1.1/DTD/svg11.dtd">
<!-- Generated by graphviz version 12.1.0 (20240811.2233)
 -->
<!-- Title: SemiFinal Pages: 1 -->
<svg width="1033pt" height="551pt"
 viewBox="0.00 0.00 1033.00 550.75" xmlns="http://www.w3.org/2000/svg" xmlns:xlink="http://www.w3.org/1999/xlink">
<g id="graph0" class="graph" transform="scale(1 1) rotate(0) translate(4 546.75)">
<title>SemiFinal</title>
<polygon fill="white" stroke="none" points="-4,4 -4,-546.75 1029,-546.75 1029,4 -4,4"/>
<g id="clust1" class="cluster">
<title>cluster0</title>
<polygon fill="none" stroke="black" points="8,-8 8,-534.5 656,-534.5 656,-8 8,-8"/>
<text text-anchor="start" x="285.88" y="-518.2" font-family="Times,serif" font-size="14.00"> </text>
<text text-anchor="start" x="289.62" y="-518.2" font-family="Times,serif" font-weight="bold" font-size="14.00">Causal entities</text>
<text text-anchor="start" x="374.38" y="-518.2" font-family="Times,serif" font-size="14.00"> </text>
</g>
<g id="clust4" class="cluster">
<title>cluster1</title>
<polygon fill="none" stroke="black" points="664,-180.5 664,-341 1017,-341 1017,-180.5 664,-180.5"/>
<text text-anchor="start" x="784.25" y="-324.7" font-family="Times,serif" font-size="14.00"> </text>
<text text-anchor="start" x="788" y="-324.7" font-family="Times,serif" font-weight="bold" font-size="14.00">Structural entities</text>
<text text-anchor="start" x="893" y="-324.7" font-family="Times,serif" font-size="14.00"> </text>
</g>
<g id="clust5" class="cluster">
<title>cluster2</title>
<polygon fill="none" stroke="black" points="680,-460 680,-534.75 1000,-534.75 1000,-460 680,-460"/>
<text text-anchor="start" x="770.25" y="-518.45" font-family="Times,serif" font-size="14.00"> </text>
<text text-anchor="start" x="774" y="-518.45" font-family="Times,serif" font-weight="bold" font-size="14.00">Organisational entities</text>
<text text-anchor="start" x="906" y="-518.45" font-family="Times,serif" font-size="14.00"> </text>
</g>
<!-- CausalEntity -->
<g id="node1" class="node">
<title>CausalEntity</title>
<polygon fill="none" stroke="black" points="202.62,-138.25 115.38,-138.25 115.38,-102.25 202.62,-102.25 202.62,-138.25"/>
<text text-anchor="middle" x="159" y="-114.08" font-family="Times,serif" font-size="14.00">Causal entity</text>
</g>
<!-- Likelihood -->
<g id="node2" class="node">
<title>Likelihood</title>
<polygon fill="none" stroke="black" points="196.62,-52 121.38,-52 121.38,-16 196.62,-16 196.62,-52"/>
<text text-anchor="middle" x="159" y="-27.82" font-family="Times,serif" font-size="14.00">Likelihood</text>
</g>
<!-- CausalEntity&#45;&gt;Likelihood -->
<g id="edge10" class="edge">
<title>CausalEntity&#45;&gt;Likelihood</title>
<path fill="none" stroke="black" d="M159,-101.79C159,-90.84 159,-76.44 159,-63.82"/>
<polygon fill="black" stroke="black" points="162.5,-63.95 159,-53.95 155.5,-63.95 162.5,-63.95"/>
<text text-anchor="middle" x="168" y="-70.95" font-family="Times,serif" font-size="14.00">has</text>
</g>
<!-- Threat -->
<g id="node3" class="node">
<title>Threat</title>
<polygon fill="none" stroke="black" points="126,-504.25 72,-504.25 72,-468.25 126,-468.25 126,-504.25"/>
<text text-anchor="middle" x="99" y="-480.07" font-family="Times,serif" font-size="14.00">Threat</text>
</g>
<!-- Threat&#45;&gt;CausalEntity -->
<g id="edge3" class="edge">
<title>Threat&#45;&gt;CausalEntity</title>
<path fill="none" stroke="black" d="M74.8,-468C56.32,-452.63 34,-428.31 34,-400.5 34,-400.5 34,-400.5 34,-205.5 34,-169.25 70.59,-147.56 104.18,-135.29"/>
<polygon fill="black" stroke="black" points="105.16,-138.66 113.5,-132.12 102.9,-132.03 105.16,-138.66"/>
<text text-anchor="middle" x="66.25" y="-286.57" font-family="Times,serif" font-size="14.00">sub&#45;class of</text>
</g>
<!-- ThreatCause -->
<g id="node4" class="node">
<title>ThreatCause</title>
<polygon fill="none" stroke="black" points="201.5,-310.75 116.5,-310.75 116.5,-274.75 201.5,-274.75 201.5,-310.75"/>
<text text-anchor="middle" x="159" y="-286.57" font-family="Times,serif" font-size="14.00">Threat cause</text>
</g>
<!-- Threat&#45;&gt;ThreatCause -->
<g id="edge11" class="edge">
<title>Threat&#45;&gt;ThreatCause</title>
<path fill="none" stroke="black" d="M95.02,-467.82C90.99,-446.75 86.57,-410.47 96,-381.25 103.51,-357.95 119.79,-335.62 133.92,-319.35"/>
<polygon fill="black" stroke="black" points="136.37,-321.86 140.46,-312.09 131.17,-317.18 136.37,-321.86"/>
<text text-anchor="middle" x="123" y="-393.32" font-family="Times,serif" font-size="14.00">caused by</text>
</g>
<!-- ControlStrategy -->
<g id="node5" class="node">
<title>ControlStrategy</title>
<polygon fill="none" stroke="black" points="262.88,-417.5 159.12,-417.5 159.12,-381.5 262.88,-381.5 262.88,-417.5"/>
<text text-anchor="middle" x="211" y="-393.32" font-family="Times,serif" font-size="14.00">Control strategy</text>
</g>
<!-- Threat&#45;&gt;ControlStrategy -->
<g id="edge13" class="edge">
<title>Threat&#45;&gt;ControlStrategy</title>
<path fill="none" stroke="black" d="M121.94,-467.9C138.39,-455.44 160.79,-438.49 179,-424.71"/>
<polygon fill="black" stroke="black" points="181.03,-427.57 186.89,-418.75 176.8,-421.99 181.03,-427.57"/>
<text text-anchor="middle" x="194.71" y="-436.7" font-family="Times,serif" font-size="14.00">triggered by</text>
<text text-anchor="middle" x="150.6" y="-418.78" font-family="Times,serif" font-size="14.00">card = 0..n &#160;&#160;&#160;</text>
</g>
<!-- AssetBehaviour -->
<g id="node10" class="node">
<title>AssetBehaviour</title>
<polygon fill="none" stroke="black" points="392.62,-417.75 281.38,-417.75 281.38,-381.25 392.62,-381.25 392.62,-417.75"/>
<text text-anchor="middle" x="337" y="-400.45" font-family="Times,serif" font-size="14.00">Asset behaviour /</text>
<text text-anchor="middle" x="337" y="-386.2" font-family="Times,serif" font-size="14.00">threat effect</text>
</g>
<!-- Threat&#45;&gt;AssetBehaviour -->
<g id="edge14" class="edge">
<title>Threat&#45;&gt;AssetBehaviour</title>
<path fill="none" stroke="black" d="M126.45,-479.51C153.65,-473.46 196.32,-463.02 232,-450 252.67,-442.46 274.81,-432.35 293.4,-423.23"/>
<polygon fill="black" stroke="black" points="294.87,-426.41 302.26,-418.82 291.75,-420.14 294.87,-426.41"/>
<text text-anchor="middle" x="285.1" y="-436.7" font-family="Times,serif" font-size="14.00">induces</text>
</g>
<!-- OrganisationalEntity -->
<g id="node16" class="node">
<title>OrganisationalEntity</title>
<polygon fill="none" stroke="black" points="821.88,-504.5 688.12,-504.5 688.12,-468 821.88,-468 821.88,-504.5"/>
<text text-anchor="middle" x="755" y="-487.2" font-family="Times,serif" font-size="14.00">Organisational entity/</text>
<text text-anchor="middle" x="755" y="-472.95" font-family="Times,serif" font-size="14.00">threat role</text>
</g>
<!-- Threat&#45;&gt;OrganisationalEntity -->
<g id="edge24" class="edge">
<title>Threat&#45;&gt;OrganisationalEntity</title>
<path fill="none" stroke="black" d="M126.35,-486.25C220,-486.25 530.03,-486.25 676.74,-486.25"/>
<polygon fill="black" stroke="black" points="676.36,-489.75 686.36,-486.25 676.36,-482.75 676.36,-489.75"/>
<text text-anchor="middle" x="407.06" y="-490.2" font-family="Times,serif" font-size="14.00">organised with</text>
</g>
<!-- ThreatCause&#45;&gt;CausalEntity -->
<g id="edge4" class="edge">
<title>ThreatCause&#45;&gt;CausalEntity</title>
<path fill="none" stroke="black" d="M159,-274.46C159,-245.1 159,-185.22 159,-149.64"/>
<polygon fill="black" stroke="black" points="162.5,-150.1 159,-140.1 155.5,-150.1 162.5,-150.1"/>
<text text-anchor="middle" x="191.25" y="-200.32" font-family="Times,serif" font-size="14.00">sub&#45;class of</text>
</g>
<!-- ControlStrategy&#45;&gt;ThreatCause -->
<g id="edge6" class="edge">
<title>ControlStrategy&#45;&gt;ThreatCause</title>
<path fill="none" stroke="black" d="M173.97,-381.17C167.36,-376.34 161.35,-370.4 157.5,-363.25 150.88,-350.97 150.55,-335.6 152.17,-322.45"/>
<polygon fill="black" stroke="black" points="155.62,-323.07 153.84,-312.63 148.71,-321.9 155.62,-323.07"/>
<text text-anchor="middle" x="189.75" y="-349.95" font-family="Times,serif" font-size="14.00">sub&#45;class of</text>
</g>
<!-- Control -->
<g id="node7" class="node">
<title>Control</title>
<polygon fill="none" stroke="black" points="276.62,-310.75 219.38,-310.75 219.38,-274.75 276.62,-274.75 276.62,-310.75"/>
<text text-anchor="middle" x="248" y="-286.57" font-family="Times,serif" font-size="14.00">Control</text>
</g>
<!-- ControlStrategy&#45;&gt;Control -->
<g id="edge12" class="edge">
<title>ControlStrategy&#45;&gt;Control</title>
<path fill="none" stroke="black" d="M218.81,-381.06C221.23,-375.42 223.83,-369.11 226,-363.25 230.98,-349.8 235.86,-334.64 239.75,-321.92"/>
<polygon fill="black" stroke="black" points="243.06,-323.08 242.59,-312.49 236.36,-321.06 243.06,-323.08"/>
<text text-anchor="middle" x="239.67" y="-349.95" font-family="Times,serif" font-size="14.00">has</text>
</g>
<!-- AssetProperty -->
<g id="node6" class="node">
<title>AssetProperty</title>
<polygon fill="none" stroke="black" points="563.75,-224.5 468.25,-224.5 468.25,-188.5 563.75,-188.5 563.75,-224.5"/>
<text text-anchor="middle" x="516" y="-200.32" font-family="Times,serif" font-size="14.00">Asset property</text>
</g>
<!-- AssetProperty&#45;&gt;CausalEntity -->
<g id="edge5" class="edge">
<title>AssetProperty&#45;&gt;CausalEntity</title>
<path fill="none" stroke="black" d="M467.85,-194.14C401.87,-178.57 283.63,-150.66 214.16,-134.27"/>
<polygon fill="black" stroke="black" points="215.04,-130.88 204.5,-131.99 213.43,-137.69 215.04,-130.88"/>
<text text-anchor="middle" x="391.12" y="-157.2" font-family="Times,serif" font-size="14.00">sub&#45;class of</text>
</g>
<!-- Control&#45;&gt;AssetProperty -->
<g id="edge7" class="edge">
<title>Control&#45;&gt;AssetProperty</title>
<path fill="none" stroke="black" d="M277.11,-280.14C281.75,-278.32 286.5,-276.47 291,-274.75 329.72,-259.96 338.92,-254.8 378.5,-242.5 404,-234.58 432.56,-227.09 457.01,-221.09"/>
<polygon fill="black" stroke="black" points="457.57,-224.56 466.46,-218.8 455.92,-217.75 457.57,-224.56"/>
<text text-anchor="middle" x="410.75" y="-243.45" font-family="Times,serif" font-size="14.00">sub&#45;class of</text>
</g>
<!-- AssetTrustworthiness -->
<g id="node8" class="node">
<title>AssetTrustworthiness</title>
<polygon fill="none" stroke="black" points="647.12,-417.5 514.88,-417.5 514.88,-381.5 647.12,-381.5 647.12,-417.5"/>
<text text-anchor="middle" x="581" y="-393.32" font-family="Times,serif" font-size="14.00">Asset trustworthiness</text>
</g>
<!-- AssetTrustworthiness&#45;&gt;AssetProperty -->
<g id="edge8" class="edge">
<title>AssetTrustworthiness&#45;&gt;AssetProperty</title>
<path fill="none" stroke="black" d="M579.36,-381.17C576.64,-356.76 570.03,-311.15 556,-274.75 550.58,-260.69 542.34,-246.19 534.75,-234.26"/>
<polygon fill="black" stroke="black" points="537.86,-232.61 529.44,-226.19 532.01,-236.46 537.86,-232.61"/>
<text text-anchor="middle" x="605.77" y="-286.57" font-family="Times,serif" font-size="14.00">sub&#45;class of</text>
</g>
<!-- virtual -->
<!-- virtual&#45;&gt;AssetTrustworthiness -->
<g id="edge2" class="edge">
<title>virtual&#45;&gt;AssetTrustworthiness</title>
<path fill="none" stroke="black" d="M476,-399.5C485.04,-399.5 494.07,-399.5 503.11,-399.5"/>
<polygon fill="black" stroke="black" points="503.04,-403 513.04,-399.5 503.04,-396 503.04,-403"/>
<text text-anchor="middle" x="484.18" y="-386.2" font-family="Times,serif" font-size="14.00"> &#160;&#160;&#160;card = 1</text>
</g>
<!-- BehaviourAttribute -->
<g id="node11" class="node">
<title>BehaviourAttribute</title>
<ellipse fill="none" stroke="black" cx="471" cy="-292.75" rx="75.53" ry="18"/>
<text text-anchor="middle" x="471" y="-286.57" font-family="Times,serif" font-size="14.00">behaviour attribute</text>
</g>
<!-- virtual&#45;&gt;BehaviourAttribute -->
<g id="edge15" class="edge">
<title>virtual&#45;&gt;BehaviourAttribute</title>
<path fill="none" stroke="black" d="M476,-398.5C476,-398.5 473.85,-353.53 472.37,-322.52"/>
<polygon fill="black" stroke="black" points="475.87,-322.38 471.9,-312.56 468.88,-322.71 475.87,-322.38"/>
<text text-anchor="middle" x="482.49" y="-349.95" font-family="Times,serif" font-size="14.00">via</text>
<text text-anchor="middle" x="445.2" y="-312" font-family="Times,serif" font-size="14.00"> &#160;card = 1</text>
</g>
<!-- AssetBehaviour&#45;&gt;AssetProperty -->
<g id="edge9" class="edge">
<title>AssetBehaviour&#45;&gt;AssetProperty</title>
<path fill="none" stroke="black" d="M327.41,-380.94C314.45,-354.55 295.76,-304.59 321.5,-274.75 339.33,-254.08 417.56,-266.63 443,-256.75 458.45,-250.75 473.9,-241.01 486.58,-231.76"/>
<polygon fill="black" stroke="black" points="488.63,-234.6 494.49,-225.77 484.4,-229.02 488.63,-234.6"/>
<text text-anchor="middle" x="353.75" y="-286.57" font-family="Times,serif" font-size="14.00">sub&#45;class of</text>
</g>
<!-- AssetBehaviour&#45;&gt;virtual -->
<g id="edge1" class="edge">
<title>AssetBehaviour&#45;&gt;virtual</title>
<path fill="none" stroke="black" d="M392.74,-399.5C431.41,-399.5 476,-399.5 476,-399.5"/>
<text text-anchor="middle" x="433.41" y="-403.45" font-family="Times,serif" font-size="14.00">undermines</text>
</g>
<!-- StructuralEntity -->
<g id="node12" class="node">
<title>StructuralEntity</title>
<polygon fill="none" stroke="black" points="892.88,-224.5 789.12,-224.5 789.12,-188.5 892.88,-188.5 892.88,-224.5"/>
<text text-anchor="middle" x="841" y="-200.32" font-family="Times,serif" font-size="14.00">Structural entity</text>
</g>
<!-- Asset -->
<g id="node13" class="node">
<title>Asset</title>
<polygon fill="none" stroke="black" points="726,-310.75 672,-310.75 672,-274.75 726,-274.75 726,-310.75"/>
<text text-anchor="middle" x="699" y="-286.57" font-family="Times,serif" font-size="14.00">Asset</text>
</g>
<!-- Asset&#45;&gt;AssetProperty -->
<g id="edge21" class="edge">
<title>Asset&#45;&gt;AssetProperty</title>
<path fill="none" stroke="black" d="M671.6,-279.14C643.23,-266.07 598.33,-245.4 564.04,-229.62"/>
<polygon fill="black" stroke="black" points="565.69,-226.52 555.14,-225.52 562.76,-232.88 565.69,-226.52"/>
<text text-anchor="middle" x="652.21" y="-243.45" font-family="Times,serif" font-size="14.00">has property</text>
</g>
<!-- Asset&#45;&gt;StructuralEntity -->
<g id="edge17" class="edge">
<title>Asset&#45;&gt;StructuralEntity</title>
<path fill="none" stroke="black" d="M723.37,-274.37C737.46,-264.58 755.68,-252.38 772.5,-242.5 779.62,-238.31 787.31,-234.11 794.86,-230.13"/>
<polygon fill="black" stroke="black" points="796.4,-233.28 803.67,-225.58 793.18,-227.06 796.4,-233.28"/>
<text text-anchor="middle" x="804.75" y="-243.45" font-family="Times,serif" font-size="14.00">sub&#45;class of</text>
</g>
<!-- AssetRelation -->
<g id="node14" class="node">
<title>AssetRelation</title>
<polygon fill="none" stroke="black" points="897.75,-310.75 784.25,-310.75 784.25,-274.75 897.75,-274.75 897.75,-310.75"/>
<text text-anchor="middle" x="841" y="-286.57" font-family="Times,serif" font-size="14.00">Asset relationship</text>
</g>
<!-- AssetRelation&#45;&gt;StructuralEntity -->
<g id="edge18" class="edge">
<title>AssetRelation&#45;&gt;StructuralEntity</title>
<path fill="none" stroke="black" d="M841,-274.29C841,-263.34 841,-248.94 841,-236.32"/>
<polygon fill="black" stroke="black" points="844.5,-236.45 841,-226.45 837.5,-236.45 844.5,-236.45"/>
<text text-anchor="middle" x="873.25" y="-243.45" font-family="Times,serif" font-size="14.00">sub&#45;class of</text>
</g>
<!-- AssetRelation&#45;&gt;Asset -->
<g id="edge19" class="edge">
<title>AssetRelation&#45;&gt;Asset</title>
<path fill="none" stroke="black" d="M784.02,-292.75C768.49,-292.75 752.03,-292.75 737.77,-292.75"/>
<polygon fill="black" stroke="black" points="737.89,-289.25 727.89,-292.75 737.89,-296.25 737.89,-289.25"/>
<text text-anchor="middle" x="755.12" y="-296.7" font-family="Times,serif" font-size="14.00">domain</text>
</g>
<!-- AssetRelation&#45;&gt;Asset -->
<g id="edge20" class="edge">
<title>AssetRelation&#45;&gt;Asset</title>
<path fill="none" stroke="black" d="M783.81,-275.61C769.51,-273.35 754.23,-272.66 740.12,-275.5 739.13,-275.7 738.13,-275.93 737.12,-276.17"/>
<polygon fill="black" stroke="black" points="736.35,-272.75 727.84,-279.06 738.43,-279.43 736.35,-272.75"/>
<text text-anchor="middle" x="755.12" y="-276.45" font-family="Times,serif" font-size="14.00">range</text>
</g>
<!-- TargetSystem -->
<g id="node15" class="node">
<title>TargetSystem</title>
<polygon fill="none" stroke="black" points="1008.62,-310.75 915.38,-310.75 915.38,-274.75 1008.62,-274.75 1008.62,-310.75"/>
<text text-anchor="middle" x="962" y="-286.57" font-family="Times,serif" font-size="14.00">Target system</text>
</g>
<!-- TargetSystem&#45;&gt;StructuralEntity -->
<g id="edge16" class="edge">
<title>TargetSystem&#45;&gt;StructuralEntity</title>
<path fill="none" stroke="black" d="M946.21,-274.47C936.42,-264.37 923.21,-251.81 910,-242.5 903.8,-238.13 896.99,-233.99 890.12,-230.19"/>
<polygon fill="black" stroke="black" points="891.91,-227.17 881.43,-225.58 888.63,-233.36 891.91,-227.17"/>
<text text-anchor="middle" x="961.39" y="-243.45" font-family="Times,serif" font-size="14.00">has structure</text>
</g>
<!-- OrganisationalEntity&#45;&gt;Asset -->
<g id="edge23" class="edge">
<title>OrganisationalEntity&#45;&gt;Asset</title>
<path fill="none" stroke="black" d="M749.83,-467.58C740.1,-434.29 718.97,-362.04 707.25,-321.96"/>
<polygon fill="black" stroke="black" points="710.67,-321.17 704.5,-312.56 703.95,-323.14 710.67,-321.17"/>
<text text-anchor="middle" x="766.64" y="-400.45" font-family="Times,serif" font-size="14.00">further</text>
<text text-anchor="middle" x="766.64" y="-386.2" font-family="Times,serif" font-size="14.00">restricted to</text>
</g>
<!-- RoleAttribute -->
<g id="node17" class="node">
<title>RoleAttribute</title>
<polygon fill="none" stroke="black" points="992.12,-504.25 901.88,-504.25 901.88,-468.25 992.12,-468.25 992.12,-504.25"/>
<text text-anchor="middle" x="947" y="-480.07" font-family="Times,serif" font-size="14.00">Role attribute</text>
</g>
<!-- OrganisationalEntity&#45;&gt;RoleAttribute -->
<g id="edge22" class="edge">
<title>OrganisationalEntity&#45;&gt;RoleAttribute</title>
<path fill="none" stroke="black" d="M822.15,-486.25C844.32,-486.25 868.76,-486.25 890.09,-486.25"/>
<polygon fill="black" stroke="black" points="890.07,-489.75 900.07,-486.25 890.07,-482.75 890.07,-489.75"/>
<text text-anchor="middle" x="861.88" y="-504.45" font-family="Times,serif" font-size="14.00">primarily</text>
<text text-anchor="middle" x="861.88" y="-490.2" font-family="Times,serif" font-size="14.00">working on</text>
</g>
</g>
</svg>
